<svg id="svg" version="1.1" xmlns="http://www.w3.org/2000/svg" xmlns:xlink="http://www.w3.org/1999/xlink" width="400" height="400" viewBox="0, 0, 400,400"><g id="svgg"><path id="path0" d="M167.071 71.359 C 166.944 71.689,166.063 71.999,164.928 72.113 C 162.308 72.376,160.048 73.006,157.440 74.199 C 156.236 74.749,155.060 75.200,154.826 75.200 C 154.592 75.200,154.400 75.341,154.400 75.514 C 154.400 75.686,153.870 76.141,153.221 76.524 C 147.882 79.678,141.945 88.100,140.862 94.058 C 140.651 95.222,140.325 96.225,140.139 96.287 C 139.952 96.349,139.849 107.131,139.909 120.248 C 140.023 144.994,140.010 145.200,138.388 145.200 C 135.844 145.200,130.169 149.865,129.222 152.733 C 128.920 153.650,128.431 154.400,128.136 154.400 C 127.841 154.400,127.600 154.670,127.600 155.000 C 127.600 155.330,127.870 155.600,128.200 155.600 C 128.530 155.600,128.800 155.841,128.800 156.136 C 128.800 158.415,135.887 157.946,137.919 155.532 C 140.127 152.907,139.986 148.156,140.111 229.300 C 140.236 310.426,140.096 305.539,142.440 310.739 C 146.580 319.921,155.826 326.972,164.928 327.887 C 166.063 328.001,166.944 328.311,167.071 328.641 C 167.354 329.379,175.590 329.450,176.320 328.720 C 176.693 328.347,176.907 328.347,177.280 328.720 C 178.114 329.554,232.638 329.399,232.959 328.562 C 233.149 328.067,233.654 327.954,235.202 328.062 C 236.301 328.138,237.250 328.051,237.311 327.868 C 237.372 327.686,238.496 327.183,239.811 326.752 C 245.249 324.966,250.093 321.455,254.310 316.242 C 255.285 315.037,257.989 309.796,257.994 309.100 C 257.997 308.715,258.281 308.400,258.624 308.400 C 258.967 308.400,259.141 308.229,259.012 308.019 C 258.708 307.528,259.490 302.637,259.894 302.502 C 260.062 302.446,260.154 269.010,260.097 228.200 C 260.040 187.390,260.141 154.000,260.322 154.000 C 260.503 154.000,261.179 154.562,261.825 155.249 C 264.416 158.004,269.918 158.516,271.325 156.133 C 271.503 155.831,271.818 155.688,272.025 155.815 C 272.231 155.943,272.400 155.677,272.400 155.224 C 272.400 154.771,272.166 154.400,271.880 154.400 C 271.595 154.400,271.118 153.725,270.821 152.900 C 269.663 149.682,266.185 146.682,262.100 145.378 L 260.000 144.708 259.998 121.454 C 259.996 106.110,259.849 97.673,259.566 96.652 C 259.259 95.546,259.259 94.981,259.568 94.672 C 259.806 94.434,259.986 93.961,259.968 93.620 C 259.947 93.208,259.869 93.168,259.735 93.500 C 259.418 94.286,258.800 94.084,258.800 93.195 C 258.800 92.752,258.638 92.077,258.441 91.695 C 258.244 91.313,257.754 90.190,257.352 89.200 C 254.967 83.319,245.429 74.000,241.795 74.000 C 241.468 74.000,241.200 73.747,241.200 73.437 C 241.200 73.093,240.921 72.948,240.480 73.063 C 240.084 73.167,238.959 72.972,237.980 72.631 C 237.001 72.291,235.429 72.009,234.487 72.006 C 233.338 72.002,232.699 71.803,232.545 71.400 C 232.209 70.525,167.406 70.485,167.071 71.359 M173.864 77.422 C 174.442 78.930,163.616 91.199,162.189 90.651 C 161.848 90.520,161.600 90.654,161.600 90.970 C 161.600 91.430,160.693 92.045,160.000 92.054 C 159.890 92.056,159.655 92.315,159.479 92.631 C 158.267 94.796,152.592 95.454,150.778 93.640 C 148.268 91.130,149.820 84.419,153.490 81.910 C 155.376 80.620,159.684 78.746,160.256 78.966 C 160.555 79.081,160.800 78.978,160.800 78.737 C 160.800 78.463,161.255 78.391,162.020 78.544 C 162.753 78.691,163.146 78.636,163.004 78.406 C 162.714 77.938,164.568 77.426,165.399 77.744 C 165.730 77.871,166.000 77.813,166.000 77.615 C 166.000 76.679,173.508 76.495,173.864 77.422 M228.006 77.300 C 228.010 77.656,228.114 77.639,228.367 77.240 C 228.757 76.623,232.495 76.901,232.719 77.563 C 232.785 77.757,233.187 77.824,233.613 77.713 C 234.585 77.458,236.499 77.916,236.237 78.339 C 236.130 78.513,236.573 78.577,237.221 78.482 C 237.977 78.371,238.400 78.484,238.400 78.797 C 238.400 79.073,238.669 79.182,239.016 79.049 C 239.355 78.919,239.940 78.969,240.316 79.159 C 240.692 79.349,241.885 79.914,242.967 80.414 C 246.213 81.914,249.572 85.484,249.092 86.924 C 249.006 87.182,249.175 87.632,249.468 87.925 C 250.130 88.588,250.154 90.406,249.518 91.881 C 247.808 95.853,243.066 95.739,237.840 91.601 C 230.146 85.509,224.642 79.231,225.359 77.364 C 225.628 76.661,227.998 76.604,228.006 77.300 M204.000 140.324 C 204.000 140.502,206.256 140.637,209.012 140.624 C 213.050 140.605,214.099 140.717,214.406 141.200 C 214.688 141.643,214.789 141.661,214.794 141.271 C 214.800 140.732,219.139 140.987,219.600 141.554 C 219.710 141.689,220.689 141.813,221.777 141.830 C 222.864 141.846,223.812 142.035,223.883 142.249 C 223.954 142.463,224.638 142.565,225.402 142.476 C 226.423 142.357,226.859 142.487,227.043 142.967 C 227.211 143.404,227.445 143.495,227.751 143.240 C 228.218 142.853,231.114 143.345,232.495 144.047 C 232.877 144.241,233.513 144.400,233.910 144.400 C 234.719 144.400,238.658 145.724,239.068 146.135 C 239.214 146.281,239.663 146.400,240.067 146.400 C 240.470 146.400,240.800 146.574,240.800 146.787 C 240.800 147.001,241.043 147.082,241.340 146.968 C 242.576 146.493,245.738 150.805,245.014 151.977 C 244.870 152.210,244.943 152.400,245.176 152.400 C 245.409 152.400,245.600 152.861,245.600 153.424 C 245.600 154.070,245.437 154.346,245.157 154.174 C 244.857 153.988,244.804 154.182,244.991 154.772 C 245.300 155.744,242.580 164.800,241.980 164.800 C 241.785 164.800,241.726 165.062,241.849 165.383 C 242.147 166.160,238.425 177.663,237.967 177.380 C 237.770 177.258,237.718 177.442,237.851 177.788 C 238.183 178.655,235.611 181.018,233.981 181.344 C 232.230 181.694,230.800 181.666,230.800 181.280 C 230.800 181.104,230.172 181.034,229.404 181.124 C 228.435 181.237,227.940 181.108,227.784 180.703 C 227.641 180.331,227.206 180.186,226.587 180.305 C 226.051 180.407,225.295 180.355,224.907 180.188 C 224.518 180.022,223.480 179.836,222.600 179.775 C 217.798 179.443,215.768 179.081,215.290 178.471 C 214.883 177.951,214.631 177.913,214.039 178.283 C 213.292 178.749,207.336 178.544,207.026 178.041 C 206.847 177.752,191.661 177.838,190.800 178.133 C 189.144 178.700,184.273 178.842,183.958 178.332 C 183.702 177.917,183.514 177.965,183.081 178.557 C 182.625 179.181,182.155 179.279,180.341 179.128 C 178.782 178.999,178.001 179.109,177.625 179.511 C 177.302 179.857,176.575 180.015,175.749 179.918 C 175.007 179.832,174.400 179.928,174.400 180.133 C 174.400 180.337,173.784 180.405,173.031 180.283 C 172.018 180.118,171.601 180.221,171.425 180.680 C 171.239 181.163,170.827 181.243,169.564 181.041 C 168.499 180.870,168.028 180.922,168.194 181.191 C 168.333 181.416,168.156 181.600,167.800 181.600 C 167.444 181.600,167.262 181.423,167.396 181.206 C 167.545 180.965,167.205 180.899,166.520 181.035 C 164.727 181.392,160.930 178.108,161.267 176.491 C 161.300 176.331,161.186 175.877,161.014 175.483 C 160.842 175.088,160.811 174.656,160.944 174.522 C 161.078 174.389,160.948 174.081,160.654 173.840 C 160.210 173.474,159.028 170.250,158.627 168.311 C 158.514 167.766,158.171 166.788,157.556 165.255 C 157.294 164.604,157.325 164.131,157.656 163.733 C 158.037 163.273,158.019 163.180,157.568 163.277 C 157.219 163.353,156.995 163.070,156.987 162.546 C 156.980 162.076,156.785 161.446,156.553 161.146 C 156.321 160.846,155.817 159.520,155.434 158.200 C 155.050 156.880,154.545 155.296,154.311 154.679 C 153.029 151.300,158.636 144.836,162.071 145.734 C 162.472 145.839,162.800 145.769,162.800 145.578 C 162.800 145.126,165.924 144.285,166.616 144.551 C 166.909 144.663,167.214 144.558,167.294 144.317 C 167.482 143.754,171.181 142.777,172.100 143.048 C 172.486 143.161,172.800 143.043,172.800 142.785 C 172.800 142.482,173.346 142.368,174.344 142.463 C 175.307 142.555,176.081 142.404,176.402 142.060 C 176.739 141.699,177.433 141.580,178.421 141.712 C 179.249 141.823,180.078 141.769,180.263 141.591 C 180.869 141.011,185.200 140.652,185.200 141.182 C 185.200 141.467,185.475 141.382,185.885 140.972 C 186.486 140.372,187.182 140.315,191.494 140.519 C 194.526 140.662,196.328 140.607,196.185 140.376 C 196.046 140.151,197.568 140.000,199.976 140.000 C 202.189 140.000,204.000 140.146,204.000 140.324 M170.200 249.495 C 171.084 249.691,171.755 250.062,171.700 250.325 C 171.573 250.929,172.283 250.952,172.483 250.350 C 172.644 249.867,175.200 250.236,175.200 250.742 C 175.200 250.896,175.891 250.955,176.736 250.875 C 177.727 250.780,178.482 250.939,178.865 251.322 C 179.222 251.679,179.877 251.836,180.505 251.716 C 181.759 251.476,191.306 252.351,191.597 252.733 C 191.873 253.096,209.344 253.075,209.617 252.710 C 210.085 252.087,215.659 251.849,216.023 252.437 C 216.307 252.897,216.464 252.865,216.911 252.254 C 217.344 251.662,217.860 251.542,219.476 251.656 C 220.750 251.747,221.672 251.615,221.965 251.300 C 222.222 251.025,222.829 250.797,223.316 250.793 C 224.601 250.784,231.123 249.411,231.453 249.080 C 231.976 248.558,234.419 248.783,234.646 249.375 C 234.767 249.691,235.103 249.859,235.392 249.748 C 236.021 249.506,238.000 251.531,238.000 252.416 C 238.000 252.759,238.150 253.211,238.332 253.420 C 238.515 253.629,238.982 254.970,239.370 256.400 C 239.758 257.830,240.226 259.293,240.410 259.651 C 240.594 260.009,240.871 260.999,241.025 261.851 C 241.179 262.703,241.431 263.580,241.587 263.800 C 241.742 264.020,242.190 265.280,242.582 266.600 C 244.167 271.933,245.267 275.448,245.624 276.319 C 246.699 278.945,245.337 282.156,242.621 283.394 C 239.743 284.705,238.343 285.153,237.790 284.941 C 237.466 284.816,237.200 284.935,237.200 285.204 C 237.200 285.510,236.826 285.622,236.200 285.502 C 235.565 285.381,235.200 285.493,235.200 285.810 C 235.200 286.085,234.705 286.415,234.100 286.544 C 233.495 286.674,231.830 287.023,230.400 287.319 C 228.970 287.616,227.530 287.960,227.200 288.083 C 225.352 288.772,221.111 289.271,220.689 288.849 C 220.051 288.211,219.600 288.293,219.600 289.047 C 219.600 289.593,219.196 289.667,217.006 289.528 C 215.412 289.427,214.358 289.524,214.271 289.781 C 214.183 290.040,212.313 290.205,209.365 290.214 C 206.744 290.222,204.305 290.368,203.944 290.540 C 203.584 290.711,201.244 290.758,198.744 290.644 C 196.245 290.530,192.235 290.383,189.834 290.318 C 186.994 290.241,185.414 290.039,185.314 289.740 C 185.210 289.428,184.392 289.349,182.788 289.495 C 180.819 289.673,180.374 289.597,180.162 289.045 C 179.965 288.532,179.781 288.484,179.359 288.834 C 178.848 289.258,174.771 288.797,172.800 288.092 C 172.470 287.974,172.020 287.851,171.800 287.820 C 168.963 287.412,167.502 287.010,167.342 286.594 C 167.235 286.315,166.797 286.180,166.364 286.293 C 164.829 286.695,157.141 283.614,155.536 281.955 C 154.015 280.383,153.547 277.898,154.377 275.800 C 154.551 275.360,155.247 273.290,155.922 271.200 C 156.598 269.110,157.342 267.445,157.575 267.500 C 158.126 267.630,158.121 267.081,157.567 266.527 C 157.256 266.216,157.295 265.943,157.706 265.559 C 158.021 265.264,158.201 264.724,158.105 264.357 C 158.009 263.990,158.126 263.569,158.365 263.422 C 158.604 263.274,158.800 262.851,158.800 262.482 C 158.800 261.448,160.907 254.800,161.235 254.800 C 161.395 254.800,161.432 254.442,161.317 254.005 C 161.185 253.501,161.345 253.119,161.752 252.963 C 162.106 252.827,162.291 252.547,162.163 252.340 C 161.817 251.781,163.030 250.135,164.293 249.450 C 165.429 248.834,167.281 248.848,170.200 249.495 M172.699 322.667 C 175.441 323.813,174.327 326.168,171.033 326.189 C 170.062 326.195,169.132 326.335,168.967 326.500 C 168.531 326.935,166.089 326.868,165.808 326.413 C 165.677 326.200,165.081 326.117,164.484 326.229 C 163.092 326.489,160.690 325.065,160.878 324.091 C 161.230 322.261,169.378 321.280,172.699 322.667 M236.429 322.760 C 238.923 323.938,237.251 326.680,234.282 326.283 C 233.668 326.201,233.072 326.283,232.959 326.467 C 232.648 326.970,229.600 326.870,229.600 326.357 C 229.600 326.080,229.213 326.010,228.570 326.172 C 226.613 326.663,224.733 325.622,225.034 324.215 C 225.177 323.547,225.317 322.990,225.347 322.979 C 225.376 322.967,225.850 322.765,226.400 322.530 C 227.996 321.849,234.831 322.006,236.429 322.760 " stroke="none" fill="#041484" fill-rule="evenodd"></path><path id="path1" d="M163.200 71.200 C 163.200 71.420,163.470 71.600,163.800 71.600 C 164.130 71.600,164.400 71.420,164.400 71.200 C 164.400 70.980,164.130 70.800,163.800 70.800 C 163.470 70.800,163.200 70.980,163.200 71.200 M235.200 71.200 C 235.200 71.420,235.560 71.600,236.000 71.600 C 236.440 71.600,236.800 71.420,236.800 71.200 C 236.800 70.980,236.440 70.800,236.000 70.800 C 235.560 70.800,235.200 70.980,235.200 71.200 M160.400 72.000 C 160.400 72.220,160.670 72.400,161.000 72.400 C 161.330 72.400,161.600 72.220,161.600 72.000 C 161.600 71.780,161.330 71.600,161.000 71.600 C 160.670 71.600,160.400 71.780,160.400 72.000 M238.200 72.000 C 238.064 72.220,238.323 72.400,238.776 72.400 C 239.229 72.400,239.600 72.220,239.600 72.000 C 239.600 71.780,239.341 71.600,239.024 71.600 C 238.707 71.600,238.336 71.780,238.200 72.000 M155.200 74.000 C 155.200 74.220,155.470 74.400,155.800 74.400 C 156.130 74.400,156.400 74.220,156.400 74.000 C 156.400 73.780,156.130 73.600,155.800 73.600 C 155.470 73.600,155.200 73.780,155.200 74.000 M147.500 79.615 C 146.015 81.133,144.800 82.545,144.800 82.754 C 144.800 82.963,144.575 83.214,144.300 83.312 C 144.025 83.410,143.931 83.632,144.092 83.804 C 144.253 83.977,144.883 83.533,145.492 82.819 C 147.318 80.678,150.500 77.600,150.886 77.600 C 151.085 77.600,151.136 77.420,151.000 77.200 C 150.595 76.544,150.319 76.734,147.500 79.615 M169.000 77.600 C 168.853 77.838,169.329 78.000,170.176 78.000 C 170.959 78.000,171.600 77.820,171.600 77.600 C 171.600 77.380,171.071 77.200,170.424 77.200 C 169.777 77.200,169.136 77.380,169.000 77.600 M172.400 78.000 C 172.400 78.440,172.542 78.800,172.715 78.800 C 172.888 78.800,173.057 78.440,173.090 78.000 C 173.123 77.560,172.981 77.200,172.775 77.200 C 172.569 77.200,172.400 77.560,172.400 78.000 M228.600 77.600 C 228.455 77.834,228.870 78.000,229.600 78.000 C 230.330 78.000,230.745 77.834,230.600 77.600 C 230.464 77.380,230.014 77.200,229.600 77.200 C 229.186 77.200,228.736 77.380,228.600 77.600 M164.400 78.400 C 164.400 78.620,164.670 78.800,165.000 78.800 C 165.330 78.800,165.600 78.620,165.600 78.400 C 165.600 78.180,165.330 78.000,165.000 78.000 C 164.670 78.000,164.400 78.180,164.400 78.400 M233.200 78.400 C 233.200 78.620,233.571 78.800,234.024 78.800 C 234.477 78.800,234.736 78.620,234.600 78.400 C 234.464 78.180,234.093 78.000,233.776 78.000 C 233.459 78.000,233.200 78.180,233.200 78.400 M226.400 79.151 C 226.400 79.344,226.670 79.726,227.000 80.000 C 227.651 80.541,227.733 80.411,227.357 79.433 C 227.100 78.763,226.400 78.557,226.400 79.151 M251.200 79.125 C 251.200 79.641,253.565 81.768,253.836 81.497 C 253.971 81.362,253.517 80.701,252.827 80.026 C 251.525 78.754,251.200 78.574,251.200 79.125 M228.406 81.500 C 228.417 82.047,229.153 82.981,229.388 82.746 C 229.703 82.431,229.201 81.200,228.757 81.200 C 228.561 81.200,228.403 81.335,228.406 81.500 M152.629 83.429 C 152.074 83.984,151.775 84.800,152.128 84.800 C 152.198 84.800,152.647 84.350,153.125 83.800 C 154.069 82.714,153.654 82.403,152.629 83.429 M166.276 85.660 C 164.777 87.213,163.647 88.580,163.764 88.697 C 164.012 88.946,169.600 83.614,169.600 83.128 C 169.600 82.410,168.885 82.954,166.276 85.660 M254.893 83.600 C 255.473 84.529,256.000 84.644,256.000 83.843 C 256.000 83.536,255.715 83.176,255.367 83.043 C 254.404 82.673,254.352 82.734,254.893 83.600 M246.800 84.800 C 246.800 85.020,246.991 85.200,247.224 85.200 C 247.457 85.200,247.536 85.380,247.400 85.600 C 247.264 85.820,247.343 86.000,247.576 86.000 C 248.067 86.000,248.087 85.893,247.757 85.033 C 247.489 84.335,246.800 84.167,246.800 84.800 M235.600 88.957 C 235.600 89.264,235.870 89.618,236.200 89.745 C 236.871 90.002,236.904 89.936,236.557 89.033 C 236.257 88.251,235.600 88.199,235.600 88.957 M248.800 90.000 C 248.800 90.747,248.907 90.853,249.280 90.480 C 249.653 90.107,249.653 89.893,249.280 89.520 C 248.907 89.147,248.800 89.253,248.800 90.000 M150.000 91.000 C 150.000 91.330,150.180 91.600,150.400 91.600 C 150.620 91.600,150.800 91.330,150.800 91.000 C 150.800 90.670,150.620 90.400,150.400 90.400 C 150.180 90.400,150.000 90.670,150.000 91.000 M240.000 92.346 C 240.000 92.566,240.405 92.872,240.900 93.027 C 241.395 93.181,241.925 93.503,242.078 93.742 C 242.231 93.981,242.478 94.056,242.626 93.907 C 242.774 93.759,242.640 93.383,242.329 93.072 C 241.582 92.325,240.000 91.832,240.000 92.346 M247.600 92.400 C 247.270 92.613,247.180 92.793,247.400 92.800 C 247.620 92.807,247.535 92.980,247.212 93.184 C 246.888 93.389,246.778 93.701,246.966 93.878 C 247.155 94.055,247.391 93.972,247.490 93.693 C 247.590 93.414,247.938 92.919,248.264 92.593 C 248.930 91.927,248.517 91.807,247.600 92.400 M150.892 92.875 C 151.139 93.617,152.000 93.740,152.000 93.033 C 152.000 92.685,151.715 92.400,151.367 92.400 C 151.018 92.400,150.805 92.614,150.892 92.875 M139.600 93.800 C 139.600 94.130,139.780 94.400,140.000 94.400 C 140.220 94.400,140.400 94.130,140.400 93.800 C 140.400 93.470,140.220 93.200,140.000 93.200 C 139.780 93.200,139.600 93.470,139.600 93.800 M138.800 98.200 C 138.800 98.750,138.980 99.200,139.200 99.200 C 139.420 99.200,139.600 98.750,139.600 98.200 C 139.600 97.650,139.420 97.200,139.200 97.200 C 138.980 97.200,138.800 97.650,138.800 98.200 M260.400 120.800 C 260.400 136.000,260.538 144.000,260.800 144.000 C 261.062 144.000,261.200 136.000,261.200 120.800 C 261.200 105.600,261.062 97.600,260.800 97.600 C 260.538 97.600,260.400 105.600,260.400 120.800 M189.600 141.200 C 189.600 141.420,190.500 141.600,191.600 141.600 C 192.700 141.600,193.600 141.420,193.600 141.200 C 193.600 140.980,192.700 140.800,191.600 140.800 C 190.500 140.800,189.600 140.980,189.600 141.200 M206.400 141.200 C 206.400 141.420,207.300 141.600,208.400 141.600 C 209.500 141.600,210.400 141.420,210.400 141.200 C 210.400 140.980,209.500 140.800,208.400 140.800 C 207.300 140.800,206.400 140.980,206.400 141.200 M183.000 141.600 C 182.856 141.833,183.263 142.000,183.976 142.000 C 184.649 142.000,185.200 141.820,185.200 141.600 C 185.200 141.380,184.761 141.200,184.224 141.200 C 183.687 141.200,183.136 141.380,183.000 141.600 M214.800 141.600 C 214.800 141.820,215.385 141.997,216.100 141.994 C 217.086 141.989,217.255 141.894,216.800 141.600 C 216.014 141.092,214.800 141.092,214.800 141.600 M178.000 142.400 C 178.000 142.620,178.270 142.800,178.600 142.800 C 178.930 142.800,179.200 142.620,179.200 142.400 C 179.200 142.180,178.930 142.000,178.600 142.000 C 178.270 142.000,178.000 142.180,178.000 142.400 M220.000 142.400 C 220.000 142.620,220.360 142.800,220.800 142.800 C 221.240 142.800,221.600 142.620,221.600 142.400 C 221.600 142.180,221.240 142.000,220.800 142.000 C 220.360 142.000,220.000 142.180,220.000 142.400 M174.400 143.200 C 174.400 143.420,174.670 143.600,175.000 143.600 C 175.330 143.600,175.600 143.420,175.600 143.200 C 175.600 142.980,175.330 142.800,175.000 142.800 C 174.670 142.800,174.400 142.980,174.400 143.200 M224.400 143.200 C 224.400 143.420,224.670 143.600,225.000 143.600 C 225.330 143.600,225.600 143.420,225.600 143.200 C 225.600 142.980,225.330 142.800,225.000 142.800 C 224.670 142.800,224.400 142.980,224.400 143.200 M168.400 144.400 C 168.400 144.620,168.670 144.800,169.000 144.800 C 169.330 144.800,169.600 144.620,169.600 144.400 C 169.600 144.180,169.330 144.000,169.000 144.000 C 168.670 144.000,168.400 144.180,168.400 144.400 M236.800 146.400 C 236.800 146.620,237.070 146.800,237.400 146.800 C 237.730 146.800,238.000 146.620,238.000 146.400 C 238.000 146.180,237.730 146.000,237.400 146.000 C 237.070 146.000,236.800 146.180,236.800 146.400 M267.200 147.200 C 267.200 147.420,267.470 147.600,267.800 147.600 C 268.130 147.600,268.400 147.420,268.400 147.200 C 268.400 146.980,268.130 146.800,267.800 146.800 C 267.470 146.800,267.200 146.980,267.200 147.200 M158.400 147.600 C 158.400 147.820,158.149 148.000,157.843 148.000 C 157.536 148.000,157.190 148.250,157.073 148.555 C 156.751 149.393,158.143 148.904,158.723 147.974 C 159.015 147.507,159.047 147.200,158.803 147.200 C 158.582 147.200,158.400 147.380,158.400 147.600 M270.406 150.271 C 270.418 150.884,271.155 151.778,271.426 151.507 C 271.574 151.359,271.404 150.947,271.048 150.590 C 270.691 150.234,270.403 150.091,270.406 150.271 M127.600 152.600 C 127.600 152.967,127.793 153.202,128.030 153.123 C 128.267 153.044,128.460 152.809,128.460 152.600 C 128.460 152.391,128.267 152.156,128.030 152.077 C 127.793 151.998,127.600 152.233,127.600 152.600 M271.478 152.256 C 271.158 152.575,271.519 153.200,272.024 153.200 C 272.231 153.200,272.400 152.930,272.400 152.600 C 272.400 151.981,271.928 151.805,271.478 152.256 M260.400 228.400 C 260.400 276.933,260.535 301.600,260.800 301.600 C 261.065 301.600,261.200 276.933,261.200 228.400 C 261.200 179.867,261.065 155.200,260.800 155.200 C 260.535 155.200,260.400 179.867,260.400 228.400 M242.800 159.000 C 242.800 159.330,242.980 159.600,243.200 159.600 C 243.420 159.600,243.600 159.330,243.600 159.000 C 243.600 158.670,243.420 158.400,243.200 158.400 C 242.980 158.400,242.800 158.670,242.800 159.000 M242.212 160.917 C 242.041 161.312,242.013 161.747,242.151 161.884 C 242.557 162.290,242.884 161.720,242.697 160.931 C 242.532 160.233,242.510 160.232,242.212 160.917 M240.292 167.042 C 240.131 167.202,240.000 167.609,240.000 167.947 C 240.000 168.397,240.118 168.442,240.445 168.115 C 240.690 167.870,240.821 167.463,240.737 167.210 C 240.652 166.957,240.452 166.881,240.292 167.042 M239.600 169.400 C 239.600 169.730,239.780 170.000,240.000 170.000 C 240.220 170.000,240.400 169.730,240.400 169.400 C 240.400 169.070,240.220 168.800,240.000 168.800 C 239.780 168.800,239.600 169.070,239.600 169.400 M238.800 171.600 C 238.800 172.040,238.980 172.400,239.200 172.400 C 239.420 172.400,239.600 172.040,239.600 171.600 C 239.600 171.160,239.420 170.800,239.200 170.800 C 238.980 170.800,238.800 171.160,238.800 171.600 M160.400 172.200 C 160.400 172.530,160.580 172.800,160.800 172.800 C 161.020 172.800,161.200 172.530,161.200 172.200 C 161.200 171.870,161.020 171.600,160.800 171.600 C 160.580 171.600,160.400 171.870,160.400 172.200 M193.200 177.200 C 193.200 177.448,195.333 177.600,198.800 177.600 C 202.267 177.600,204.400 177.448,204.400 177.200 C 204.400 176.952,202.267 176.800,198.800 176.800 C 195.333 176.800,193.200 176.952,193.200 177.200 M162.400 177.971 C 162.400 178.400,164.338 180.000,164.857 180.000 C 165.050 180.000,164.691 179.460,164.060 178.800 C 162.879 177.564,162.400 177.325,162.400 177.971 M184.307 178.067 C 184.652 178.412,185.012 178.419,185.687 178.094 C 186.544 177.681,186.516 177.652,185.220 177.627 C 184.168 177.606,183.951 177.711,184.307 178.067 M212.368 178.038 C 213.009 178.294,213.475 178.285,213.748 178.012 C 214.031 177.729,213.727 177.608,212.780 177.625 C 211.483 177.649,211.458 177.674,212.368 178.038 M178.800 178.400 C 178.800 178.620,179.160 178.800,179.600 178.800 C 180.040 178.800,180.400 178.620,180.400 178.400 C 180.400 178.180,180.040 178.000,179.600 178.000 C 179.160 178.000,178.800 178.180,178.800 178.400 M217.800 178.400 C 217.656 178.633,218.063 178.800,218.776 178.800 C 219.449 178.800,220.000 178.620,220.000 178.400 C 220.000 178.180,219.561 178.000,219.024 178.000 C 218.487 178.000,217.936 178.180,217.800 178.400 M236.100 178.623 C 235.511 179.263,235.462 179.600,235.957 179.600 C 236.298 179.600,236.937 178.396,236.709 178.183 C 236.649 178.127,236.375 178.325,236.100 178.623 M174.800 179.200 C 174.800 179.420,175.160 179.600,175.600 179.600 C 176.040 179.600,176.400 179.420,176.400 179.200 C 176.400 178.980,176.040 178.800,175.600 178.800 C 175.160 178.800,174.800 178.980,174.800 179.200 M222.400 179.200 C 222.400 179.420,222.760 179.600,223.200 179.600 C 223.640 179.600,224.000 179.420,224.000 179.200 C 224.000 178.980,223.640 178.800,223.200 178.800 C 222.760 178.800,222.400 178.980,222.400 179.200 M165.600 180.400 C 165.600 180.620,165.870 180.800,166.200 180.800 C 166.530 180.800,166.800 180.620,166.800 180.400 C 166.800 180.180,166.530 180.000,166.200 180.000 C 165.870 180.000,165.600 180.180,165.600 180.400 M229.200 180.400 C 229.200 180.620,229.470 180.800,229.800 180.800 C 230.130 180.800,230.400 180.620,230.400 180.400 C 230.400 180.180,230.130 180.000,229.800 180.000 C 229.470 180.000,229.200 180.180,229.200 180.400 M163.544 250.766 C 163.025 251.187,162.726 251.658,162.881 251.813 C 163.035 251.968,163.453 251.804,163.810 251.448 C 164.166 251.091,164.624 250.800,164.829 250.800 C 165.033 250.800,165.200 250.620,165.200 250.400 C 165.200 249.786,164.585 249.922,163.544 250.766 M169.000 250.400 C 169.136 250.620,169.507 250.800,169.824 250.800 C 170.141 250.800,170.400 250.620,170.400 250.400 C 170.400 250.180,170.029 250.000,169.576 250.000 C 169.123 250.000,168.864 250.180,169.000 250.400 M227.200 250.800 C 227.200 251.020,227.470 251.200,227.800 251.200 C 228.130 251.200,228.400 251.020,228.400 250.800 C 228.400 250.580,228.130 250.400,227.800 250.400 C 227.470 250.400,227.200 250.580,227.200 250.800 M175.600 251.600 C 175.600 251.820,175.971 252.000,176.424 252.000 C 176.877 252.000,177.136 251.820,177.000 251.600 C 176.864 251.380,176.493 251.200,176.176 251.200 C 175.859 251.200,175.600 251.380,175.600 251.600 M223.600 251.600 C 223.600 251.820,223.960 252.000,224.400 252.000 C 224.840 252.000,225.200 251.820,225.200 251.600 C 225.200 251.380,224.840 251.200,224.400 251.200 C 223.960 251.200,223.600 251.380,223.600 251.600 M180.000 252.315 C 180.000 252.488,180.360 252.657,180.800 252.690 C 181.240 252.723,181.600 252.581,181.600 252.375 C 181.600 252.169,181.240 252.000,180.800 252.000 C 180.360 252.000,180.000 252.142,180.000 252.315 M219.600 252.400 C 219.600 252.620,219.960 252.800,220.400 252.800 C 220.840 252.800,221.200 252.620,221.200 252.400 C 221.200 252.180,220.840 252.000,220.400 252.000 C 219.960 252.000,219.600 252.180,219.600 252.400 M184.800 252.800 C 184.800 253.020,185.520 253.200,186.400 253.200 C 187.280 253.200,188.000 253.020,188.000 252.800 C 188.000 252.580,187.280 252.400,186.400 252.400 C 185.520 252.400,184.800 252.580,184.800 252.800 M214.200 252.800 C 214.060 253.027,214.396 253.200,214.976 253.200 C 215.539 253.200,216.000 253.020,216.000 252.800 C 216.000 252.580,215.651 252.400,215.224 252.400 C 214.797 252.400,214.336 252.580,214.200 252.800 M193.200 253.600 C 193.200 253.852,195.867 254.000,200.400 254.000 C 204.933 254.000,207.600 253.852,207.600 253.600 C 207.600 253.348,204.933 253.200,200.400 253.200 C 195.867 253.200,193.200 253.348,193.200 253.600 M238.400 257.200 C 238.400 257.947,238.507 258.053,238.880 257.680 C 239.253 257.307,239.253 257.093,238.880 256.720 C 238.507 256.347,238.400 256.453,238.400 257.200 M160.400 258.600 C 160.400 258.930,160.580 259.200,160.800 259.200 C 161.020 259.200,161.200 258.930,161.200 258.600 C 161.200 258.270,161.020 258.000,160.800 258.000 C 160.580 258.000,160.400 258.270,160.400 258.600 M238.800 259.000 C 238.800 259.330,238.980 259.600,239.200 259.600 C 239.420 259.600,239.600 259.330,239.600 259.000 C 239.600 258.670,239.420 258.400,239.200 258.400 C 238.980 258.400,238.800 258.670,238.800 259.000 M159.600 260.600 C 159.600 260.930,159.780 261.200,160.000 261.200 C 160.220 261.200,160.400 260.930,160.400 260.600 C 160.400 260.270,160.220 260.000,160.000 260.000 C 159.780 260.000,159.600 260.270,159.600 260.600 M159.492 261.842 C 159.331 262.002,159.200 262.409,159.200 262.747 C 159.200 263.197,159.318 263.242,159.645 262.915 C 159.890 262.670,160.021 262.263,159.937 262.010 C 159.852 261.757,159.652 261.681,159.492 261.842 M241.600 267.600 C 241.600 268.040,241.780 268.400,242.000 268.400 C 242.220 268.400,242.400 268.040,242.400 267.600 C 242.400 267.160,242.220 266.800,242.000 266.800 C 241.780 266.800,241.600 267.160,241.600 267.600 M157.200 269.000 C 157.200 269.330,157.380 269.600,157.600 269.600 C 157.820 269.600,158.000 269.330,158.000 269.000 C 158.000 268.670,157.820 268.400,157.600 268.400 C 157.380 268.400,157.200 268.670,157.200 269.000 M242.000 269.600 C 242.000 270.040,242.180 270.400,242.400 270.400 C 242.620 270.400,242.800 270.040,242.800 269.600 C 242.800 269.160,242.620 268.800,242.400 268.800 C 242.180 268.800,242.000 269.160,242.000 269.600 M154.400 277.400 C 154.400 277.730,154.580 278.000,154.800 278.000 C 155.020 278.000,155.200 277.730,155.200 277.400 C 155.200 277.070,155.020 276.800,154.800 276.800 C 154.580 276.800,154.400 277.070,154.400 277.400 M244.800 278.176 C 244.800 278.739,244.980 279.200,245.200 279.200 C 245.420 279.200,245.600 278.851,245.600 278.424 C 245.600 277.997,245.420 277.536,245.200 277.400 C 244.973 277.260,244.800 277.596,244.800 278.176 M243.833 280.657 C 243.499 281.530,243.943 281.936,244.416 281.188 C 244.889 280.440,244.899 280.000,244.443 280.000 C 244.246 280.000,243.972 280.296,243.833 280.657 M160.000 283.600 C 160.000 283.820,160.270 284.000,160.600 284.000 C 160.930 284.000,161.200 283.820,161.200 283.600 C 161.200 283.380,160.930 283.200,160.600 283.200 C 160.270 283.200,160.000 283.380,160.000 283.600 M163.920 285.280 C 164.293 285.653,164.507 285.653,164.880 285.280 C 165.253 284.907,165.147 284.800,164.400 284.800 C 163.653 284.800,163.547 284.907,163.920 285.280 M168.400 286.400 C 168.400 286.620,168.670 286.800,169.000 286.800 C 169.330 286.800,169.600 286.620,169.600 286.400 C 169.600 286.180,169.330 286.000,169.000 286.000 C 168.670 286.000,168.400 286.180,168.400 286.400 M230.400 286.400 C 230.400 286.620,230.670 286.800,231.000 286.800 C 231.330 286.800,231.600 286.620,231.600 286.400 C 231.600 286.180,231.330 286.000,231.000 286.000 C 230.670 286.000,230.400 286.180,230.400 286.400 M174.000 287.600 C 174.000 287.820,174.360 288.000,174.800 288.000 C 175.240 288.000,175.600 287.820,175.600 287.600 C 175.600 287.380,175.240 287.200,174.800 287.200 C 174.360 287.200,174.000 287.380,174.000 287.600 M224.400 287.600 C 224.400 287.820,224.760 288.000,225.200 288.000 C 225.640 288.000,226.000 287.820,226.000 287.600 C 226.000 287.380,225.640 287.200,225.200 287.200 C 224.760 287.200,224.400 287.380,224.400 287.600 M177.800 288.400 C 177.936 288.620,178.296 288.800,178.600 288.800 C 178.904 288.800,179.264 288.620,179.400 288.400 C 179.541 288.172,179.196 288.000,178.600 288.000 C 178.004 288.000,177.659 288.172,177.800 288.400 M220.600 288.400 C 220.736 288.620,221.107 288.800,221.424 288.800 C 221.741 288.800,222.000 288.620,222.000 288.400 C 222.000 288.180,221.629 288.000,221.176 288.000 C 220.723 288.000,220.464 288.180,220.600 288.400 M182.400 288.800 C 182.400 289.020,182.760 289.200,183.200 289.200 C 183.640 289.200,184.000 289.020,184.000 288.800 C 184.000 288.580,183.640 288.400,183.200 288.400 C 182.760 288.400,182.400 288.580,182.400 288.800 M215.200 288.800 C 215.200 289.020,215.650 289.200,216.200 289.200 C 216.750 289.200,217.200 289.020,217.200 288.800 C 217.200 288.580,216.750 288.400,216.200 288.400 C 215.650 288.400,215.200 288.580,215.200 288.800 M189.800 289.600 C 189.656 289.833,190.063 290.000,190.776 290.000 C 191.449 290.000,192.000 289.820,192.000 289.600 C 192.000 289.380,191.561 289.200,191.024 289.200 C 190.487 289.200,189.936 289.380,189.800 289.600 M207.600 289.600 C 207.600 289.820,208.320 290.000,209.200 290.000 C 210.080 290.000,210.800 289.820,210.800 289.600 C 210.800 289.380,210.080 289.200,209.200 289.200 C 208.320 289.200,207.600 289.380,207.600 289.600 M138.800 302.200 C 138.800 302.970,138.980 303.600,139.200 303.600 C 139.420 303.600,139.600 302.970,139.600 302.200 C 139.600 301.430,139.420 300.800,139.200 300.800 C 138.980 300.800,138.800 301.430,138.800 302.200 M259.600 305.400 C 259.600 305.730,259.780 306.000,260.000 306.000 C 260.220 306.000,260.400 305.730,260.400 305.400 C 260.400 305.070,260.220 304.800,260.000 304.800 C 259.780 304.800,259.600 305.070,259.600 305.400 M139.600 306.000 C 139.600 306.440,139.780 306.800,140.000 306.800 C 140.220 306.800,140.400 306.440,140.400 306.000 C 140.400 305.560,140.220 305.200,140.000 305.200 C 139.780 305.200,139.600 305.560,139.600 306.000 M140.800 310.200 C 140.800 310.530,140.980 310.800,141.200 310.800 C 141.420 310.800,141.600 310.530,141.600 310.200 C 141.600 309.870,141.420 309.600,141.200 309.600 C 140.980 309.600,140.800 309.870,140.800 310.200 M145.600 317.992 C 145.600 318.575,149.198 322.135,149.491 321.842 C 149.606 321.728,148.777 320.707,147.650 319.574 C 146.522 318.440,145.600 317.729,145.600 317.992 M251.798 320.002 C 250.812 321.092,251.322 321.478,252.367 320.433 C 252.825 319.975,253.200 319.510,253.200 319.400 C 253.200 318.942,252.475 319.254,251.798 320.002 M146.800 322.600 C 146.800 322.930,147.070 323.200,147.400 323.200 C 147.730 323.200,148.000 322.930,148.000 322.600 C 148.000 322.270,147.730 322.000,147.400 322.000 C 147.070 322.000,146.800 322.270,146.800 322.600 M164.800 322.800 C 164.800 323.020,165.160 323.200,165.600 323.200 C 166.040 323.200,166.400 323.020,166.400 322.800 C 166.400 322.580,166.040 322.400,165.600 322.400 C 165.160 322.400,164.800 322.580,164.800 322.800 M168.400 322.800 C 168.400 323.020,168.850 323.200,169.400 323.200 C 169.950 323.200,170.400 323.020,170.400 322.800 C 170.400 322.580,169.950 322.400,169.400 322.400 C 168.850 322.400,168.400 322.580,168.400 322.800 M228.000 322.800 C 228.000 323.020,228.540 323.200,229.200 323.200 C 229.860 323.200,230.400 323.020,230.400 322.800 C 230.400 322.580,229.860 322.400,229.200 322.400 C 228.540 322.400,228.000 322.580,228.000 322.800 M232.400 322.800 C 232.400 323.020,232.760 323.200,233.200 323.200 C 233.640 323.200,234.000 323.020,234.000 322.800 C 234.000 322.580,233.640 322.400,233.200 322.400 C 232.760 322.400,232.400 322.580,232.400 322.800 M162.400 323.600 C 162.400 323.820,162.670 324.000,163.000 324.000 C 163.330 324.000,163.600 323.820,163.600 323.600 C 163.600 323.380,163.330 323.200,163.000 323.200 C 162.670 323.200,162.400 323.380,162.400 323.600 M235.600 323.600 C 235.600 323.820,235.825 324.003,236.100 324.006 C 236.439 324.010,236.410 324.132,236.012 324.384 C 235.688 324.589,235.557 324.891,235.721 325.054 C 235.885 325.218,236.330 325.042,236.710 324.662 C 237.314 324.057,237.325 323.924,236.800 323.592 C 236.020 323.099,235.600 323.102,235.600 323.600 M172.633 324.257 C 172.299 325.130,172.743 325.536,173.216 324.788 C 173.689 324.040,173.699 323.600,173.243 323.600 C 173.046 323.600,172.772 323.896,172.633 324.257 M153.366 324.855 C 153.185 325.148,153.250 325.216,153.538 325.038 C 153.806 324.873,154.000 324.996,154.000 325.333 C 154.000 325.911,155.896 326.637,156.314 326.219 C 156.435 326.099,156.458 325.955,156.367 325.900 C 154.325 324.675,153.627 324.432,153.366 324.855 M227.200 325.600 C 227.200 325.820,227.470 326.000,227.800 326.000 C 228.130 326.000,228.400 325.820,228.400 325.600 C 228.400 325.380,228.130 325.200,227.800 325.200 C 227.470 325.200,227.200 325.380,227.200 325.600 M233.600 325.600 C 233.600 325.820,233.960 326.000,234.400 326.000 C 234.840 326.000,235.200 325.820,235.200 325.600 C 235.200 325.380,234.840 325.200,234.400 325.200 C 233.960 325.200,233.600 325.380,233.600 325.600 M160.400 328.000 C 160.400 328.220,160.670 328.400,161.000 328.400 C 161.330 328.400,161.600 328.220,161.600 328.000 C 161.600 327.780,161.330 327.600,161.000 327.600 C 160.670 327.600,160.400 327.780,160.400 328.000 M238.400 328.000 C 238.400 328.220,238.670 328.400,239.000 328.400 C 239.330 328.400,239.600 328.220,239.600 328.000 C 239.600 327.780,239.330 327.600,239.000 327.600 C 238.670 327.600,238.400 327.780,238.400 328.000 M163.200 328.800 C 163.200 329.020,163.560 329.200,164.000 329.200 C 164.440 329.200,164.800 329.020,164.800 328.800 C 164.800 328.580,164.440 328.400,164.000 328.400 C 163.560 328.400,163.200 328.580,163.200 328.800 M235.200 328.800 C 235.200 329.020,235.560 329.200,236.000 329.200 C 236.440 329.200,236.800 329.020,236.800 328.800 C 236.800 328.580,236.440 328.400,236.000 328.400 C 235.560 328.400,235.200 328.580,235.200 328.800 M176.200 329.200 C 176.064 329.420,176.334 329.600,176.800 329.600 C 177.266 329.600,177.536 329.420,177.400 329.200 C 177.264 328.980,176.994 328.800,176.800 328.800 C 176.606 328.800,176.336 328.980,176.200 329.200 " stroke="none" fill="#6073e0" fill-rule="evenodd"></path><path id="path2" d="M148.378 79.900 L 147.000 81.400 148.500 80.022 C 149.325 79.263,150.000 78.588,150.000 78.522 C 150.000 78.216,149.662 78.504,148.378 79.900 M230.400 84.378 C 230.400 84.607,230.965 85.290,231.656 85.897 C 232.346 86.504,233.144 87.225,233.427 87.500 C 234.040 88.094,234.400 88.141,234.400 87.627 C 234.400 87.422,234.049 87.143,233.620 87.006 C 233.192 86.870,232.737 86.453,232.610 86.080 C 232.336 85.270,230.400 83.780,230.400 84.378 M161.345 90.600 C 161.218 90.930,160.864 91.200,160.557 91.200 C 160.251 91.200,160.000 91.386,160.000 91.614 C 160.000 92.211,161.446 91.377,161.740 90.611 C 161.869 90.275,161.885 90.000,161.775 90.000 C 161.665 90.000,161.471 90.270,161.345 90.600 M236.580 90.368 C 236.732 90.613,237.007 90.719,237.193 90.604 C 237.379 90.489,237.624 90.581,237.736 90.808 C 237.848 91.034,237.894 90.991,237.837 90.710 C 237.780 90.430,237.412 90.138,237.019 90.062 C 236.575 89.975,236.409 90.091,236.580 90.368 M260.187 121.600 C 260.187 134.030,260.238 139.115,260.300 132.900 C 260.362 126.685,260.362 116.515,260.300 110.300 C 260.238 104.085,260.187 109.170,260.187 121.600 M208.500 140.676 C 208.885 140.776,209.515 140.776,209.900 140.676 C 210.285 140.575,209.970 140.493,209.200 140.493 C 208.430 140.493,208.115 140.575,208.500 140.676 M265.424 146.587 C 266.442 147.358,267.024 147.367,266.257 146.600 C 265.927 146.270,265.430 146.000,265.152 146.000 C 264.869 146.000,264.988 146.258,265.424 146.587 M132.054 147.480 C 131.426 148.152,131.934 148.121,133.200 147.410 C 134.094 146.907,134.112 146.854,133.370 146.904 C 132.914 146.935,132.322 147.194,132.054 147.480 M154.400 153.400 C 154.400 153.950,154.558 154.400,154.750 154.400 C 154.942 154.400,155.100 153.950,155.100 153.400 C 155.100 152.850,154.942 152.400,154.750 152.400 C 154.558 152.400,154.400 152.850,154.400 153.400 M260.185 154.900 C 260.080 155.175,260.041 188.160,260.098 228.200 L 260.202 301.000 260.301 227.876 C 260.376 172.727,260.514 154.823,260.862 155.038 C 261.148 155.215,261.215 155.148,261.038 154.862 C 260.670 154.266,260.421 154.277,260.185 154.900 M137.578 156.300 L 136.200 157.800 137.796 156.400 C 138.673 155.630,139.468 154.955,139.562 154.900 C 139.656 154.845,139.559 154.800,139.345 154.800 C 139.132 154.800,138.337 155.475,137.578 156.300 M127.799 156.401 C 127.586 156.746,127.633 156.827,127.938 156.638 C 128.230 156.458,128.400 156.656,128.400 157.176 C 128.400 157.629,128.580 158.000,128.800 158.000 C 129.352 158.000,129.300 157.490,128.661 156.616 C 128.240 156.040,128.051 155.993,127.799 156.401 M271.214 156.774 C 270.696 157.741,270.693 158.000,271.200 158.000 C 271.420 158.000,271.600 157.629,271.600 157.176 C 271.600 156.656,271.770 156.458,272.062 156.638 C 272.348 156.815,272.415 156.748,272.238 156.462 C 271.848 155.830,271.694 155.876,271.214 156.774 M209.800 178.000 C 210.996 178.514,211.995 178.514,211.200 178.000 C 210.870 177.787,210.240 177.622,209.800 177.634 L 209.000 177.656 209.800 178.000 M236.385 179.418 C 236.103 179.758,235.633 179.945,235.342 179.833 C 235.051 179.721,234.620 180.028,234.384 180.515 C 234.020 181.268,234.034 181.305,234.478 180.765 C 234.765 180.416,235.193 180.195,235.429 180.275 C 235.665 180.354,236.188 180.055,236.591 179.610 C 236.994 179.164,237.228 178.800,237.111 178.800 C 236.994 178.800,236.667 179.078,236.385 179.418 M188.400 252.800 C 188.400 253.020,188.670 253.200,189.000 253.200 C 189.330 253.200,189.600 253.020,189.600 252.800 C 189.600 252.580,189.330 252.400,189.000 252.400 C 188.670 252.400,188.400 252.580,188.400 252.800 M211.600 252.800 C 211.600 253.020,211.870 253.200,212.200 253.200 C 212.530 253.200,212.800 253.020,212.800 252.800 C 212.800 252.580,212.530 252.400,212.200 252.400 C 211.870 252.400,211.600 252.580,211.600 252.800 M196.100 253.091 C 196.925 253.178,198.275 253.178,199.100 253.091 C 199.925 253.005,199.250 252.934,197.600 252.934 C 195.950 252.934,195.275 253.005,196.100 253.091 M202.291 253.089 C 203.001 253.177,204.261 253.179,205.091 253.092 C 205.921 253.005,205.340 252.933,203.800 252.931 C 202.260 252.929,201.581 253.000,202.291 253.089 M150.800 322.702 C 150.800 322.879,151.340 323.228,152.000 323.478 C 152.660 323.727,153.200 323.861,153.200 323.776 C 153.200 323.690,152.660 323.341,152.000 323.000 C 151.340 322.659,150.800 322.525,150.800 322.702 M173.141 323.519 C 173.569 323.818,173.585 324.098,173.219 324.849 C 172.777 325.757,172.784 325.765,173.383 325.016 C 174.093 324.129,174.020 323.523,173.175 323.295 C 172.703 323.167,172.697 323.207,173.141 323.519 M236.957 323.530 C 237.111 323.779,237.019 324.392,236.753 324.892 C 236.314 325.716,236.331 325.749,236.935 325.251 C 237.708 324.613,237.799 323.770,237.138 323.362 C 236.855 323.187,236.785 323.252,236.957 323.530 " stroke="none" fill="#3c54bc" fill-rule="evenodd"></path><path id="path3" d="M165.255 71.446 C 164.778 71.985,164.849 72.046,165.825 71.931 C 166.437 71.859,167.012 71.575,167.102 71.300 C 167.335 70.592,165.912 70.704,165.255 71.446 M232.497 71.300 C 232.588 71.575,233.278 71.832,234.031 71.870 C 234.784 71.909,235.085 71.850,234.700 71.741 C 234.315 71.631,234.000 71.375,234.000 71.171 C 234.000 70.967,233.625 70.800,233.167 70.800 C 232.679 70.800,232.401 71.007,232.497 71.300 M162.000 72.000 C 162.000 72.220,161.550 72.400,161.000 72.400 C 160.450 72.400,160.000 72.574,160.000 72.787 C 160.000 73.001,160.225 73.106,160.500 73.021 C 160.775 72.936,161.495 72.758,162.100 72.626 C 163.255 72.373,163.631 71.600,162.600 71.600 C 162.270 71.600,162.000 71.780,162.000 72.000 M236.800 71.973 C 236.800 72.423,238.363 72.970,238.697 72.637 C 238.827 72.506,238.633 72.400,238.267 72.400 C 237.900 72.400,237.600 72.220,237.600 72.000 C 237.600 71.780,237.420 71.600,237.200 71.600 C 236.980 71.600,236.800 71.768,236.800 71.973 M157.828 73.490 C 157.164 73.659,155.659 74.800,156.100 74.800 C 156.186 74.800,156.964 74.447,157.829 74.016 C 159.369 73.247,159.369 73.097,157.828 73.490 M242.599 73.998 C 243.106 74.819,244.400 75.271,244.400 74.627 C 244.400 74.256,244.169 74.114,243.800 74.255 C 243.470 74.382,243.200 74.286,243.200 74.043 C 243.200 73.799,243.009 73.600,242.776 73.600 C 242.543 73.600,242.463 73.779,242.599 73.998 M152.200 76.875 L 151.000 78.104 152.600 76.968 C 153.480 76.343,154.275 75.780,154.367 75.716 C 154.458 75.652,154.278 75.610,153.967 75.623 C 153.655 75.635,152.860 76.199,152.200 76.875 M167.661 76.994 C 167.767 77.100,169.147 77.222,170.727 77.265 C 173.661 77.344,174.214 77.721,173.078 78.871 C 172.790 79.162,172.434 79.719,172.286 80.110 C 172.139 80.500,171.609 80.983,171.109 81.184 C 170.609 81.385,170.341 81.561,170.514 81.575 C 170.687 81.589,170.635 81.960,170.400 82.400 C 169.450 84.175,170.710 83.020,172.351 80.612 C 174.679 77.195,174.492 76.800,170.546 76.800 C 168.852 76.800,167.554 76.887,167.661 76.994 M225.338 77.417 C 225.208 77.757,225.213 78.147,225.351 78.284 C 225.488 78.421,225.600 78.238,225.600 77.877 C 225.600 77.360,225.857 77.271,226.800 77.460 C 227.564 77.613,228.000 77.537,228.000 77.250 C 228.000 76.554,225.612 76.704,225.338 77.417 M229.105 77.083 C 229.602 77.179,230.322 77.175,230.705 77.075 C 231.087 76.975,230.680 76.896,229.800 76.901 C 228.920 76.905,228.607 76.987,229.105 77.083 M166.000 77.600 C 166.000 77.820,166.270 78.000,166.600 78.000 C 166.930 78.000,167.200 77.820,167.200 77.600 C 167.200 77.380,166.930 77.200,166.600 77.200 C 166.270 77.200,166.000 77.380,166.000 77.600 M163.257 77.956 C 162.879 78.196,162.849 78.383,163.157 78.574 C 163.401 78.724,163.600 78.670,163.600 78.453 C 163.600 78.236,163.915 77.976,164.300 77.876 C 164.796 77.746,164.825 77.681,164.400 77.653 C 164.070 77.630,163.556 77.767,163.257 77.956 M234.968 78.226 C 235.312 78.570,235.794 78.727,236.040 78.576 C 236.546 78.263,235.767 77.617,234.871 77.606 C 234.476 77.602,234.500 77.757,234.968 78.226 M148.386 80.300 L 146.200 82.600 148.500 80.414 C 150.637 78.382,150.983 78.000,150.686 78.000 C 150.624 78.000,149.589 79.035,148.386 80.300 M249.784 78.427 C 249.639 78.661,249.585 78.886,249.664 78.927 C 249.744 78.967,250.526 79.630,251.404 80.400 C 252.831 81.653,252.883 81.672,251.899 80.578 C 251.295 79.906,250.800 79.051,250.800 78.678 C 250.800 77.921,250.189 77.770,249.784 78.427 M160.800 78.787 C 160.800 79.001,160.565 79.085,160.279 78.975 C 159.457 78.660,156.721 79.948,157.057 80.492 C 157.276 80.847,157.385 80.844,157.507 80.480 C 157.595 80.216,158.012 80.000,158.433 80.000 C 158.855 80.000,159.200 79.800,159.200 79.557 C 159.200 79.283,159.584 79.210,160.200 79.364 C 160.938 79.549,161.200 79.456,161.200 79.008 C 161.200 78.673,161.110 78.400,161.000 78.400 C 160.890 78.400,160.800 78.574,160.800 78.787 M226.743 80.700 C 227.244 81.415,227.739 82.000,227.841 82.000 C 228.187 82.000,227.250 80.540,226.537 79.967 C 226.036 79.565,226.096 79.778,226.743 80.700 M241.370 79.952 C 241.490 80.145,241.995 80.406,242.494 80.532 C 243.368 80.752,243.373 80.740,242.624 80.180 C 241.764 79.538,241.032 79.404,241.370 79.952 M154.483 81.257 C 153.143 82.115,152.952 82.623,154.143 82.167 C 154.504 82.028,154.800 81.754,154.800 81.557 C 154.800 81.361,155.059 81.200,155.376 81.200 C 155.693 81.200,156.064 81.020,156.200 80.800 C 156.594 80.162,155.906 80.345,154.483 81.257 M244.804 81.900 C 247.652 84.517,249.005 85.286,246.472 82.848 C 245.302 81.722,244.178 80.800,243.976 80.800 C 243.773 80.800,244.146 81.295,244.804 81.900 M253.600 83.000 C 254.117 83.550,254.606 84.000,254.688 84.000 C 255.021 84.000,253.372 82.024,253.030 82.013 C 252.827 82.006,253.083 82.450,253.600 83.000 M228.444 82.600 C 228.426 82.988,230.196 85.200,230.525 85.200 C 230.615 85.200,230.603 84.750,230.498 84.200 C 230.378 83.574,230.037 83.200,229.587 83.200 C 229.191 83.200,228.776 82.975,228.665 82.700 C 228.554 82.425,228.455 82.380,228.444 82.600 M166.476 86.816 C 164.648 88.567,162.893 90.000,162.576 90.000 C 162.259 90.000,162.000 90.180,162.000 90.400 C 162.000 91.304,162.957 90.624,166.488 87.215 C 168.529 85.243,170.110 83.630,170.000 83.631 C 169.890 83.631,168.304 85.064,166.476 86.816 M150.704 84.900 C 149.696 86.441,149.444 87.635,150.186 87.350 C 150.595 87.193,150.738 86.836,150.585 86.353 C 150.454 85.939,150.517 85.600,150.726 85.600 C 150.936 85.600,151.201 85.240,151.316 84.800 C 151.587 83.764,151.430 83.790,150.704 84.900 M255.406 85.400 C 255.820 86.060,256.484 87.230,256.880 88.000 C 257.588 89.373,257.597 89.377,257.339 88.200 C 257.195 87.540,256.924 86.940,256.738 86.867 C 256.552 86.793,256.400 86.561,256.400 86.350 C 256.400 86.139,256.007 85.569,255.527 85.083 L 254.654 84.200 255.406 85.400 M231.200 85.750 C 231.200 86.047,233.761 88.398,234.653 88.920 C 234.976 89.109,235.200 89.062,235.200 88.807 C 235.200 88.569,234.885 88.256,234.500 88.110 C 233.599 87.769,232.786 86.966,233.019 86.648 C 233.119 86.511,233.080 86.490,232.932 86.601 C 232.785 86.711,232.335 86.503,231.932 86.139 C 231.530 85.774,231.200 85.599,231.200 85.750 M249.120 88.080 C 249.672 88.632,249.776 91.200,249.247 91.200 C 248.898 91.200,248.338 93.266,248.612 93.543 C 248.865 93.800,250.000 90.727,250.000 89.784 C 250.000 88.535,249.605 87.600,249.077 87.600 C 248.785 87.600,248.799 87.759,249.120 88.080 M257.956 90.674 C 258.240 91.734,259.200 92.474,259.200 91.633 C 259.200 91.395,259.020 91.200,258.800 91.200 C 258.580 91.200,258.400 90.840,258.400 90.400 C 258.400 89.960,258.236 89.600,258.035 89.600 C 257.833 89.600,257.798 90.083,257.956 90.674 M150.081 92.871 C 150.748 93.876,152.400 95.068,152.400 94.544 C 152.400 94.349,151.995 94.010,151.500 93.791 C 151.005 93.571,150.625 93.078,150.656 92.696 C 150.686 92.313,150.439 92.000,150.107 92.000 C 149.576 92.000,149.572 92.106,150.081 92.871 M140.667 92.667 C 140.520 92.813,140.400 93.518,140.400 94.233 C 140.400 94.948,140.175 95.614,139.900 95.712 C 139.625 95.810,139.535 96.035,139.700 96.212 C 140.165 96.710,140.474 96.185,140.816 94.316 C 141.143 92.530,141.115 92.218,140.667 92.667 M157.719 93.332 C 156.794 93.810,156.029 94.339,156.019 94.508 C 155.995 94.897,159.058 93.353,159.396 92.806 C 159.710 92.298,159.740 92.289,157.719 93.332 M241.776 94.220 C 242.636 94.862,243.368 94.996,243.030 94.448 C 242.910 94.255,242.405 93.994,241.906 93.868 C 241.032 93.648,241.027 93.660,241.776 94.220 M259.504 96.200 C 259.748 97.821,260.400 98.462,260.400 97.080 C 260.400 96.486,260.233 96.000,260.029 96.000 C 259.825 96.000,259.583 95.775,259.491 95.500 C 259.399 95.225,259.405 95.540,259.504 96.200 M139.697 121.556 C 139.607 142.502,139.550 144.150,138.900 144.643 C 138.515 144.935,138.403 145.180,138.651 145.187 C 139.953 145.224,140.007 144.192,139.900 121.555 L 139.793 99.000 139.697 121.556 M196.200 140.400 C 196.337 140.621,198.137 140.800,200.224 140.800 C 202.475 140.800,204.000 140.638,204.000 140.400 C 204.000 140.160,202.392 140.000,199.976 140.000 C 197.396 140.000,196.041 140.143,196.200 140.400 M186.100 140.665 C 185.240 141.012,185.554 141.600,186.600 141.600 C 187.150 141.600,187.600 141.432,187.600 141.227 C 187.600 141.021,188.095 140.778,188.700 140.687 C 189.482 140.568,189.338 140.512,188.200 140.492 C 187.320 140.476,186.375 140.554,186.100 140.665 M211.000 140.685 C 211.440 140.791,211.971 141.040,212.180 141.239 C 212.669 141.704,214.400 141.710,214.400 141.247 C 214.400 140.790,212.927 140.400,211.400 140.452 C 210.569 140.480,210.446 140.552,211.000 140.685 M183.300 141.076 C 183.685 141.176,184.315 141.176,184.700 141.076 C 185.085 140.975,184.770 140.893,184.000 140.893 C 183.230 140.893,182.915 140.975,183.300 141.076 M180.200 141.600 C 180.064 141.820,180.323 142.000,180.776 142.000 C 181.229 142.000,181.600 141.820,181.600 141.600 C 181.600 141.380,181.341 141.200,181.024 141.200 C 180.707 141.200,180.336 141.380,180.200 141.600 M218.200 141.600 C 218.336 141.820,218.707 142.000,219.024 142.000 C 219.341 142.000,219.600 141.820,219.600 141.600 C 219.600 141.380,219.229 141.200,218.776 141.200 C 218.323 141.200,218.064 141.380,218.200 141.600 M176.412 141.984 C 176.088 142.189,175.963 142.496,176.133 142.667 C 176.304 142.837,176.569 142.773,176.723 142.525 C 176.877 142.276,177.542 141.993,178.201 141.896 L 179.400 141.720 178.200 141.666 C 177.540 141.636,176.735 141.780,176.412 141.984 M221.700 141.887 C 222.305 141.978,222.800 142.221,222.800 142.427 C 222.800 142.632,223.070 142.800,223.400 142.800 C 223.730 142.800,224.000 142.641,224.000 142.447 C 224.000 142.029,222.534 141.588,221.400 141.665 C 220.909 141.699,221.024 141.784,221.700 141.887 M172.800 142.808 C 172.800 143.037,172.320 143.122,171.700 143.001 C 170.790 142.825,170.738 142.853,171.400 143.166 C 172.601 143.733,173.487 143.671,173.745 143.000 C 173.885 142.635,173.745 142.400,173.387 142.400 C 173.064 142.400,172.800 142.583,172.800 142.808 M226.243 142.967 C 226.376 143.315,226.661 143.600,226.876 143.600 C 227.402 143.600,227.073 142.691,226.475 142.492 C 226.182 142.394,226.093 142.577,226.243 142.967 M231.743 144.200 C 232.073 144.530,232.558 144.800,232.820 144.800 C 233.181 144.800,233.176 144.654,232.800 144.200 C 232.526 143.870,232.041 143.600,231.722 143.600 C 231.225 143.600,231.228 143.685,231.743 144.200 M260.000 144.382 C 260.000 144.775,261.549 145.384,261.832 145.101 C 261.926 145.007,261.553 144.725,261.002 144.474 C 260.451 144.223,260.000 144.181,260.000 144.382 M164.400 144.800 L 163.400 145.120 164.500 145.160 C 165.105 145.182,165.600 145.020,165.600 144.800 C 165.600 144.580,165.555 144.418,165.500 144.440 C 165.445 144.462,164.950 144.624,164.400 144.800 M234.200 144.800 C 234.336 145.020,234.851 145.200,235.344 145.200 C 235.837 145.200,236.456 145.416,236.720 145.680 C 237.046 146.006,237.200 146.019,237.200 145.719 C 237.200 145.477,236.633 145.081,235.940 144.839 C 234.377 144.294,233.880 144.283,234.200 144.800 M136.800 145.133 C 136.800 145.390,136.440 145.600,136.000 145.600 C 135.560 145.600,135.200 145.763,135.200 145.963 C 135.200 146.408,136.723 146.048,137.046 145.525 C 137.175 145.317,137.172 145.039,137.040 144.907 C 136.908 144.775,136.800 144.877,136.800 145.133 M262.674 145.081 C 262.512 145.342,262.889 145.692,263.600 145.940 C 264.329 146.194,264.800 146.209,264.800 145.979 C 264.800 145.771,264.455 145.600,264.033 145.600 C 263.612 145.600,263.195 145.384,263.107 145.120 C 262.993 144.779,262.867 144.768,262.674 145.081 M160.400 146.000 C 159.605 146.514,160.604 146.514,161.800 146.000 L 162.600 145.656 161.800 145.634 C 161.360 145.622,160.730 145.787,160.400 146.000 M158.500 146.812 C 157.306 147.292,157.356 147.536,158.600 147.298 C 159.150 147.193,159.600 146.948,159.600 146.753 C 159.600 146.559,159.555 146.411,159.500 146.425 C 159.445 146.439,158.995 146.613,158.500 146.812 M241.502 147.066 C 241.779 147.177,241.916 147.412,241.807 147.589 C 241.698 147.765,241.967 148.003,242.404 148.117 C 242.842 148.231,243.200 148.227,243.200 148.107 C 243.200 147.770,241.850 146.823,241.400 146.844 C 241.180 146.855,241.226 146.954,241.502 147.066 M132.253 147.686 C 132.360 147.859,132.244 148.000,131.995 148.000 C 131.531 148.000,130.202 149.161,130.197 149.571 C 130.195 149.697,129.865 150.490,129.463 151.332 C 129.061 152.175,128.816 152.950,128.920 153.053 C 129.023 153.156,129.298 152.695,129.530 152.028 C 129.763 151.362,130.750 150.041,131.725 149.094 C 133.029 147.826,133.307 147.371,132.778 147.371 C 132.382 147.371,132.146 147.513,132.253 147.686 M267.577 148.283 C 268.124 148.769,268.886 149.579,269.270 150.083 L 269.968 151.000 269.712 150.000 C 269.408 148.817,268.672 148.000,267.909 148.000 C 267.607 148.000,267.185 147.865,266.972 147.700 C 266.758 147.535,267.031 147.798,267.577 148.283 M243.615 148.600 C 243.617 148.820,243.986 149.450,244.436 150.000 C 244.979 150.664,245.115 150.731,244.840 150.200 C 244.166 148.895,243.612 148.172,243.615 148.600 M154.463 151.726 C 153.847 153.225,153.879 154.088,154.587 155.024 C 155.119 155.726,155.176 155.733,155.187 155.100 C 155.194 154.715,155.020 154.400,154.800 154.400 C 154.251 154.400,154.292 152.503,154.846 152.318 C 155.091 152.236,155.209 151.816,155.109 151.385 C 154.950 150.701,154.866 150.745,154.463 151.726 M244.800 153.176 C 244.800 153.603,244.980 154.064,245.200 154.200 C 245.427 154.340,245.600 154.004,245.600 153.424 C 245.600 152.861,245.420 152.400,245.200 152.400 C 244.980 152.400,244.800 152.749,244.800 153.176 M260.000 154.400 C 260.000 154.620,260.142 154.755,260.315 154.700 C 260.488 154.645,261.127 155.095,261.733 155.700 C 262.340 156.305,262.953 156.800,263.097 156.800 C 263.240 156.800,262.746 156.170,262.000 155.400 C 260.628 153.984,260.000 153.670,260.000 154.400 M137.970 155.500 L 137.000 156.600 138.026 155.700 C 138.590 155.205,139.174 154.800,139.325 154.800 C 139.475 154.800,139.644 187.695,139.700 227.900 L 139.802 301.000 139.901 227.700 C 140.008 148.680,140.125 153.055,137.970 155.500 M244.542 155.874 C 244.291 155.964,244.177 156.391,244.290 156.821 C 244.402 157.252,244.271 157.873,243.998 158.202 C 243.678 158.588,243.655 158.800,243.932 158.800 C 244.169 158.800,244.546 158.135,244.770 157.322 C 245.218 155.700,245.208 155.635,244.542 155.874 M155.050 157.111 C 155.398 158.565,156.012 159.721,156.289 159.444 C 156.413 159.320,156.293 158.954,156.024 158.629 C 155.754 158.304,155.644 157.691,155.779 157.267 C 155.937 156.769,155.804 156.410,155.407 156.258 C 154.910 156.067,154.841 156.234,155.050 157.111 M135.400 157.200 C 134.629 157.531,134.631 157.545,135.476 157.572 C 135.958 157.587,136.464 157.420,136.600 157.200 C 136.892 156.727,136.501 156.727,135.400 157.200 M270.000 157.200 C 269.670 157.413,268.545 157.591,267.500 157.594 C 266.455 157.597,265.600 157.780,265.600 158.000 C 265.600 158.625,268.538 158.469,269.939 157.771 C 271.156 157.163,271.525 156.793,270.900 156.806 C 270.735 156.809,270.330 156.987,270.000 157.200 M130.800 158.000 C 130.800 158.220,131.610 158.400,132.600 158.400 C 133.590 158.400,134.400 158.220,134.400 158.000 C 134.400 157.780,133.590 157.600,132.600 157.600 C 131.610 157.600,130.800 157.780,130.800 158.000 M156.800 162.561 C 156.800 163.240,157.453 163.764,157.730 163.307 C 157.832 163.138,157.665 162.768,157.358 162.484 C 156.900 162.061,156.800 162.074,156.800 162.561 M242.543 162.322 C 242.302 162.476,242.233 162.947,242.387 163.379 C 242.644 164.097,242.685 164.083,242.917 163.196 C 243.207 162.086,243.143 161.937,242.543 162.322 M157.200 164.153 C 157.200 164.268,157.365 164.776,157.567 165.281 C 158.358 167.258,158.524 167.815,158.435 168.200 C 158.384 168.420,158.581 168.353,158.871 168.050 C 159.287 167.617,159.294 167.461,158.900 167.317 C 158.625 167.216,158.400 166.685,158.400 166.138 C 158.400 165.591,158.130 164.873,157.800 164.543 C 157.470 164.213,157.200 164.037,157.200 164.153 M241.275 166.354 C 240.978 166.538,240.887 166.962,241.054 167.396 C 241.309 168.061,241.366 168.043,241.676 167.206 C 242.073 166.134,241.973 165.922,241.275 166.354 M240.667 168.667 C 240.520 168.813,240.400 169.338,240.400 169.833 C 240.400 170.328,240.184 170.805,239.920 170.893 C 239.564 171.012,239.558 171.127,239.898 171.337 C 240.192 171.519,240.504 171.086,240.768 170.133 C 241.183 168.627,241.152 168.181,240.667 168.667 M159.038 169.866 C 159.443 171.569,159.836 172.189,160.168 171.651 C 160.322 171.403,160.257 171.200,160.024 171.200 C 159.791 171.200,159.600 170.761,159.600 170.224 C 159.600 169.687,159.413 169.132,159.184 168.990 C 158.911 168.822,158.861 169.124,159.038 169.866 M239.275 172.754 C 238.978 172.938,238.887 173.362,239.054 173.796 C 239.309 174.461,239.366 174.443,239.676 173.606 C 240.073 172.534,239.973 172.322,239.275 172.754 M160.092 173.275 C 160.291 173.873,161.200 174.202,161.200 173.676 C 161.200 173.461,160.915 173.176,160.567 173.043 C 160.177 172.893,159.994 172.982,160.092 173.275 M238.400 175.800 C 238.400 176.350,238.209 176.800,237.976 176.800 C 237.743 176.800,237.651 176.959,237.771 177.153 C 237.891 177.347,237.519 178.197,236.946 179.042 C 236.372 179.887,236.207 180.326,236.578 180.018 C 237.809 178.997,239.573 174.800,238.772 174.800 C 238.567 174.800,238.400 175.250,238.400 175.800 M188.200 178.000 C 188.053 178.238,188.521 178.400,189.353 178.400 C 190.123 178.400,190.864 178.220,191.000 178.000 C 191.147 177.762,190.679 177.600,189.847 177.600 C 189.077 177.600,188.336 177.780,188.200 178.000 M196.700 177.896 C 198.075 177.974,200.325 177.974,201.700 177.896 C 203.075 177.818,201.950 177.754,199.200 177.754 C 196.450 177.754,195.325 177.818,196.700 177.896 M207.000 178.000 C 207.136 178.220,208.002 178.387,208.924 178.372 C 210.227 178.350,210.422 178.267,209.800 178.000 C 208.669 177.514,206.700 177.514,207.000 178.000 M181.781 178.370 C 181.907 178.573,181.693 178.830,181.305 178.941 C 180.917 179.053,181.126 179.111,181.769 179.072 C 183.125 178.989,183.716 178.000,182.410 178.000 C 181.938 178.000,181.656 178.166,181.781 178.370 M215.298 178.500 C 215.388 178.775,215.988 179.032,216.631 179.072 C 217.274 179.111,217.485 179.053,217.100 178.942 C 216.715 178.832,216.400 178.575,216.400 178.371 C 216.400 178.167,216.115 178.000,215.767 178.000 C 215.418 178.000,215.207 178.225,215.298 178.500 M184.705 178.683 C 185.202 178.779,185.922 178.775,186.305 178.675 C 186.687 178.575,186.280 178.496,185.400 178.501 C 184.520 178.505,184.207 178.587,184.705 178.683 M177.200 179.200 C 177.200 179.420,176.615 179.621,175.900 179.646 C 175.163 179.673,174.917 179.775,175.332 179.882 C 176.295 180.131,178.000 179.690,178.000 179.192 C 178.000 178.977,177.820 178.800,177.600 178.800 C 177.380 178.800,177.200 178.980,177.200 179.200 M219.872 179.232 C 220.109 179.469,221.000 179.715,221.852 179.779 C 222.703 179.843,222.902 179.817,222.292 179.722 C 221.683 179.626,221.289 179.380,221.416 179.174 C 221.543 178.968,221.151 178.800,220.544 178.800 C 219.754 178.800,219.563 178.923,219.872 179.232 M170.800 180.372 C 170.800 180.577,170.395 180.830,169.900 180.936 C 169.272 181.069,169.354 181.108,170.169 181.063 C 171.235 181.006,172.241 180.000,171.233 180.000 C 170.995 180.000,170.800 180.167,170.800 180.372 M227.698 180.500 C 227.789 180.775,228.299 181.033,228.831 181.074 C 229.414 181.118,229.521 181.067,229.100 180.945 C 228.715 180.833,228.400 180.575,228.400 180.371 C 228.400 180.167,228.205 180.000,227.967 180.000 C 227.728 180.000,227.607 180.225,227.698 180.500 M230.800 181.200 C 230.800 181.420,231.441 181.600,232.224 181.600 C 233.071 181.600,233.547 181.438,233.400 181.200 C 233.264 180.980,232.623 180.800,231.976 180.800 C 231.329 180.800,230.800 180.980,230.800 181.200 M164.984 249.227 C 164.839 249.461,164.853 249.776,165.015 249.927 C 165.177 250.077,165.390 249.975,165.488 249.700 C 165.586 249.425,166.267 249.200,167.000 249.200 C 167.733 249.200,168.414 249.425,168.512 249.700 C 168.610 249.975,168.845 250.055,169.034 249.878 C 169.222 249.701,169.112 249.389,168.788 249.184 C 167.981 248.674,165.307 248.703,164.984 249.227 M231.200 249.400 C 230.792 249.891,230.820 250.000,231.351 250.000 C 231.708 250.000,232.000 249.820,232.000 249.600 C 232.000 249.076,233.893 249.079,234.068 249.604 C 234.142 249.826,234.608 250.086,235.103 250.181 C 235.598 250.277,236.182 250.465,236.402 250.601 C 236.621 250.736,236.800 250.676,236.800 250.466 C 236.800 250.003,235.652 249.520,235.206 249.796 C 235.029 249.906,234.781 249.726,234.654 249.398 C 234.352 248.609,231.855 248.610,231.200 249.400 M162.829 250.654 C 162.373 251.234,162.005 251.909,162.012 252.154 C 162.019 252.399,162.224 252.240,162.468 251.800 C 162.712 251.360,163.185 250.685,163.518 250.300 C 163.851 249.915,164.019 249.600,163.891 249.600 C 163.763 249.600,163.285 250.074,162.829 250.654 M227.800 249.966 L 226.600 250.238 227.771 250.477 C 228.519 250.630,229.142 250.515,229.499 250.158 C 230.130 249.527,229.870 249.498,227.800 249.966 M225.000 250.800 C 224.864 251.020,225.123 251.200,225.576 251.200 C 226.029 251.200,226.400 251.020,226.400 250.800 C 226.400 250.580,226.141 250.400,225.824 250.400 C 225.507 250.400,225.136 250.580,225.000 250.800 M177.300 251.076 C 177.685 251.176,178.000 251.425,178.000 251.629 C 178.000 251.833,178.270 252.000,178.600 252.000 C 178.930 252.000,179.200 251.839,179.200 251.643 C 179.200 251.206,178.173 250.783,177.267 250.846 C 176.679 250.887,176.683 250.915,177.300 251.076 M222.100 251.065 C 221.404 251.346,221.473 252.000,222.200 252.000 C 222.530 252.000,222.800 251.833,222.800 251.629 C 222.800 251.425,223.115 251.176,223.500 251.076 C 224.079 250.925,224.061 250.890,223.400 250.878 C 222.960 250.870,222.375 250.954,222.100 251.065 M182.302 251.831 C 182.579 251.961,182.698 252.242,182.567 252.454 C 182.416 252.698,183.482 252.739,185.464 252.566 C 188.938 252.263,189.801 252.000,187.322 252.000 C 186.437 252.000,184.832 251.908,183.756 251.796 C 182.680 251.684,182.026 251.700,182.302 251.831 M217.067 251.867 C 216.555 252.379,216.806 252.800,217.624 252.800 C 218.077 252.800,218.345 252.635,218.221 252.434 C 218.097 252.233,218.221 251.977,218.498 251.866 C 218.774 251.754,218.625 251.649,218.167 251.632 C 217.708 251.614,217.213 251.720,217.067 251.867 M212.900 252.287 C 213.505 252.378,214.495 252.378,215.100 252.287 C 215.705 252.195,215.210 252.120,214.000 252.120 C 212.790 252.120,212.295 252.195,212.900 252.287 M189.600 252.800 C 189.600 253.020,190.050 253.200,190.600 253.200 C 191.150 253.200,191.600 253.020,191.600 252.800 C 191.600 252.580,191.150 252.400,190.600 252.400 C 190.050 252.400,189.600 252.580,189.600 252.800 M209.600 252.800 C 209.600 253.020,210.050 253.200,210.600 253.200 C 211.150 253.200,211.600 253.020,211.600 252.800 C 211.600 252.580,211.150 252.400,210.600 252.400 C 210.050 252.400,209.600 252.580,209.600 252.800 M237.900 253.465 C 238.175 253.576,238.400 254.192,238.400 254.833 C 238.400 255.475,238.583 256.000,238.808 256.000 C 239.049 256.000,239.108 255.552,238.952 254.900 C 238.604 253.444,238.443 253.194,237.876 253.232 C 237.533 253.254,237.539 253.319,237.900 253.465 M239.228 257.076 C 239.213 257.558,239.380 258.064,239.600 258.200 C 240.073 258.492,240.073 258.101,239.600 257.000 C 239.269 256.229,239.255 256.231,239.228 257.076 M159.600 258.903 C 159.600 258.959,159.433 259.589,159.228 260.303 C 158.998 261.103,158.998 261.600,159.228 261.600 C 159.433 261.600,159.600 261.150,159.600 260.600 C 159.600 260.050,159.780 259.600,160.000 259.600 C 160.220 259.600,160.400 259.420,160.400 259.200 C 160.400 258.980,160.220 258.800,160.000 258.800 C 159.780 258.800,159.600 258.846,159.600 258.903 M239.900 259.865 C 240.175 259.976,240.400 260.491,240.400 261.010 C 240.400 261.528,240.587 262.068,240.816 262.210 C 241.089 262.378,241.139 262.077,240.961 261.334 C 240.604 259.842,240.446 259.594,239.876 259.632 C 239.533 259.654,239.539 259.719,239.900 259.865 M158.419 263.377 C 158.147 263.705,158.017 264.204,158.131 264.487 C 158.266 264.823,158.348 264.770,158.368 264.333 C 158.386 263.967,158.625 263.586,158.900 263.488 C 159.175 263.390,159.291 263.191,159.157 263.045 C 159.023 262.900,158.691 263.049,158.419 263.377 M241.613 265.700 C 241.606 266.085,241.780 266.400,242.000 266.400 C 242.220 266.400,242.400 266.839,242.400 267.376 C 242.400 267.913,242.611 268.483,242.868 268.642 C 243.187 268.839,243.251 268.709,243.068 268.233 C 242.921 267.849,242.800 267.314,242.800 267.044 C 242.800 266.175,241.628 264.849,241.613 265.700 M243.032 269.949 C 242.878 270.197,242.943 270.400,243.176 270.400 C 243.409 270.400,243.600 270.839,243.600 271.376 C 243.600 271.913,243.787 272.468,244.016 272.610 C 244.289 272.778,244.339 272.476,244.162 271.734 C 243.757 270.031,243.364 269.411,243.032 269.949 M155.045 273.362 C 154.717 274.671,154.823 274.912,155.435 274.246 C 155.675 273.985,155.749 273.425,155.600 273.001 C 155.365 272.330,155.292 272.378,155.045 273.362 M244.267 273.769 C 243.903 274.718,243.931 274.890,244.400 274.600 C 244.620 274.464,244.800 274.573,244.800 274.843 C 244.800 275.113,244.894 275.239,245.009 275.125 C 245.123 275.010,245.064 274.501,244.876 273.994 C 244.578 273.188,244.501 273.159,244.267 273.769 M154.495 275.665 C 154.223 275.937,154.000 276.407,154.000 276.709 C 154.000 277.138,154.137 277.120,154.632 276.625 C 154.980 276.277,155.203 275.808,155.127 275.581 C 155.041 275.322,154.807 275.353,154.495 275.665 M244.800 276.400 C 244.800 276.620,244.980 276.800,245.200 276.800 C 245.728 276.800,245.719 279.874,245.190 280.137 C 244.965 280.249,245.010 280.295,245.290 280.239 C 246.239 280.052,246.145 276.000,245.192 276.000 C 244.977 276.000,244.800 276.180,244.800 276.400 M154.055 279.400 C 154.035 279.840,154.355 280.639,154.768 281.176 L 155.518 282.152 155.312 281.076 C 155.199 280.484,154.961 280.000,154.783 280.000 C 154.604 280.000,154.376 279.685,154.276 279.300 C 154.122 278.713,154.087 278.729,154.055 279.400 M244.662 281.383 C 244.532 281.722,244.149 282.000,243.813 282.000 C 243.476 282.000,243.200 282.180,243.200 282.400 C 243.200 282.620,242.930 282.800,242.600 282.800 C 242.270 282.800,242.000 283.001,242.000 283.247 C 242.000 283.492,241.652 283.602,241.226 283.491 C 240.778 283.374,240.362 283.523,240.238 283.844 C 239.961 284.566,240.118 284.548,242.132 283.631 C 243.843 282.851,245.506 281.373,245.114 280.980 C 244.995 280.862,244.792 281.043,244.662 281.383 M156.203 282.395 C 155.972 282.769,156.762 283.301,158.573 283.990 C 159.369 284.292,159.600 284.256,159.600 283.828 C 159.600 283.481,159.316 283.349,158.837 283.474 C 158.387 283.592,157.736 283.336,157.252 282.852 C 156.799 282.399,156.328 282.194,156.203 282.395 M161.547 285.048 C 162.287 285.374,162.992 285.541,163.113 285.420 C 163.446 285.088,163.136 284.937,161.600 284.685 L 160.200 284.456 161.547 285.048 M164.200 286.000 C 165.396 286.514,166.395 286.514,165.600 286.000 C 165.270 285.787,164.640 285.622,164.200 285.634 L 163.400 285.656 164.200 286.000 M232.400 286.400 C 232.400 286.620,231.781 286.800,231.024 286.800 C 230.267 286.800,229.524 286.999,229.374 287.243 C 229.115 287.662,230.377 287.541,232.500 286.943 C 233.243 286.734,233.476 286.000,232.800 286.000 C 232.580 286.000,232.400 286.180,232.400 286.400 M167.633 286.943 C 168.076 287.322,170.417 287.551,170.196 287.194 C 170.062 286.977,169.393 286.800,168.710 286.800 C 168.026 286.800,167.542 286.864,167.633 286.943 M171.600 287.644 C 171.090 288.010,171.104 288.042,171.687 287.855 C 172.065 287.734,172.481 287.807,172.611 288.017 C 172.741 288.228,173.242 288.379,173.724 288.354 C 174.400 288.318,174.441 288.266,173.900 288.124 C 173.515 288.024,173.200 287.775,173.200 287.571 C 173.200 287.072,172.340 287.112,171.600 287.644 M226.800 287.571 C 226.800 287.775,226.485 288.024,226.100 288.124 C 225.544 288.270,225.575 288.317,226.251 288.354 C 226.719 288.379,227.326 288.130,227.600 287.800 C 228.008 287.309,227.980 287.200,227.449 287.200 C 227.092 287.200,226.800 287.367,226.800 287.571 M175.400 288.400 C 175.536 288.620,175.907 288.800,176.224 288.800 C 176.541 288.800,176.800 288.620,176.800 288.400 C 176.800 288.180,176.429 288.000,175.976 288.000 C 175.523 288.000,175.264 288.180,175.400 288.400 M223.200 288.400 C 223.200 288.620,223.459 288.800,223.776 288.800 C 224.093 288.800,224.464 288.620,224.600 288.400 C 224.736 288.180,224.477 288.000,224.024 288.000 C 223.571 288.000,223.200 288.180,223.200 288.400 M178.200 288.800 L 177.000 289.105 178.076 289.153 C 178.668 289.179,179.264 289.020,179.400 288.800 C 179.536 288.580,179.592 288.421,179.524 288.447 C 179.456 288.473,178.860 288.632,178.200 288.800 M180.100 288.900 C 180.191 289.175,180.566 289.458,180.932 289.529 C 181.396 289.619,181.524 289.468,181.356 289.029 C 181.072 288.290,179.855 288.165,180.100 288.900 M218.579 288.766 C 218.703 288.967,218.579 289.223,218.302 289.334 C 218.026 289.446,218.205 289.551,218.700 289.568 C 219.247 289.588,219.600 289.365,219.600 289.000 C 219.600 288.670,219.319 288.400,218.976 288.400 C 218.633 288.400,218.455 288.565,218.579 288.766 M220.741 288.901 C 220.943 289.103,221.533 289.201,222.054 289.119 C 222.855 288.993,222.798 288.937,221.687 288.752 C 220.893 288.621,220.519 288.679,220.741 288.901 M185.200 289.582 C 185.200 290.104,187.495 290.493,189.418 290.296 C 190.805 290.154,190.739 290.126,188.876 290.067 C 187.577 290.026,186.849 289.845,187.000 289.600 C 187.140 289.373,186.804 289.200,186.224 289.200 C 185.661 289.200,185.200 289.372,185.200 289.582 M212.600 289.600 C 212.748 289.840,212.158 290.024,211.124 290.060 C 209.818 290.105,209.682 290.162,210.563 290.293 C 212.052 290.514,214.400 290.079,214.400 289.582 C 214.400 289.372,213.939 289.200,213.376 289.200 C 212.796 289.200,212.460 289.373,212.600 289.600 M194.400 290.400 C 195.199 290.916,203.881 290.916,204.200 290.400 C 204.360 290.141,202.572 290.002,199.124 290.006 C 195.539 290.010,193.996 290.139,194.400 290.400 M259.395 303.900 C 259.262 304.725,259.067 305.820,258.961 306.334 C 258.840 306.917,258.924 307.171,259.184 307.010 C 259.413 306.868,259.600 306.033,259.600 305.153 C 259.600 304.188,259.759 303.651,260.000 303.800 C 260.220 303.936,260.400 303.677,260.400 303.224 C 260.400 301.815,259.649 302.321,259.395 303.900 M140.400 305.910 C 140.400 306.593,140.577 307.262,140.794 307.396 C 141.040 307.548,141.094 307.145,140.937 306.320 C 140.600 304.551,140.400 304.399,140.400 305.910 M257.902 309.400 C 257.797 309.950,257.866 310.400,258.055 310.400 C 258.245 310.400,258.400 310.055,258.400 309.633 C 258.400 309.212,258.625 308.776,258.900 308.665 C 259.217 308.537,259.161 308.452,258.747 308.432 C 258.355 308.413,258.017 308.800,257.902 309.400 M255.600 314.200 C 255.059 315.190,254.497 316.000,254.351 316.000 C 254.205 316.000,253.983 316.267,253.858 316.594 C 253.667 317.091,253.758 317.108,254.415 316.698 C 254.847 316.428,255.200 315.994,255.200 315.732 C 255.200 315.471,255.446 315.011,255.747 314.710 C 256.260 314.197,257.016 312.400,256.719 312.400 C 256.644 312.400,256.141 313.210,255.600 314.200 M145.552 316.700 C 145.760 317.085,146.518 317.940,147.234 318.600 C 148.432 319.703,148.412 319.647,146.984 317.900 C 145.346 315.896,144.924 315.543,145.552 316.700 M250.400 320.325 C 248.970 321.749,248.160 322.725,248.600 322.496 C 249.410 322.074,249.678 322.000,250.400 322.000 C 250.620 322.000,250.800 321.671,250.800 321.270 C 250.800 320.469,252.371 318.800,253.126 318.800 C 253.387 318.800,253.600 318.530,253.600 318.200 C 253.600 317.274,253.198 317.540,250.400 320.325 M149.866 321.532 C 149.969 321.924,150.581 322.444,151.226 322.687 C 152.733 323.256,152.703 323.126,151.040 321.858 C 149.928 321.010,149.714 320.950,149.866 321.532 M163.266 322.350 C 162.839 322.621,162.864 322.739,163.387 322.940 C 163.747 323.078,163.938 323.024,163.812 322.820 C 163.686 322.616,164.262 322.378,165.092 322.292 L 166.600 322.134 165.200 322.073 C 164.430 322.040,163.560 322.164,163.266 322.350 M170.300 322.282 C 170.795 322.378,171.200 322.623,171.200 322.828 C 171.200 323.033,171.729 323.200,172.376 323.200 C 173.023 323.200,173.662 323.376,173.795 323.592 C 174.180 324.215,173.205 325.688,172.569 325.444 C 172.256 325.323,172.000 325.387,172.000 325.585 C 172.000 325.783,171.685 326.023,171.300 326.118 C 170.915 326.214,171.139 326.222,171.799 326.136 C 175.625 325.639,174.171 321.804,170.251 322.054 C 169.436 322.107,169.438 322.116,170.300 322.282 M226.300 322.520 C 225.695 322.759,225.214 323.235,225.232 323.577 C 225.252 323.989,225.331 324.031,225.465 323.700 C 225.576 323.425,226.012 323.200,226.433 323.200 C 226.855 323.200,227.200 323.032,227.200 322.827 C 227.200 322.621,227.695 322.378,228.300 322.287 C 229.318 322.132,229.326 322.119,228.400 322.102 C 227.850 322.093,226.905 322.281,226.300 322.520 M234.107 322.287 C 234.716 322.379,235.110 322.622,234.983 322.827 C 234.856 323.032,235.033 323.200,235.376 323.200 C 235.719 323.200,236.000 323.039,236.000 322.843 C 236.000 322.371,234.949 321.985,233.867 322.060 C 233.221 322.105,233.283 322.163,234.107 322.287 M161.204 323.395 C 160.259 324.534,162.631 326.718,164.327 326.271 C 164.801 326.145,164.734 326.079,164.100 326.046 C 163.605 326.021,163.200 325.820,163.200 325.600 C 163.200 325.380,162.826 325.200,162.368 325.200 C 161.652 325.200,161.573 325.033,161.800 324.000 C 162.093 322.665,161.939 322.509,161.204 323.395 M237.000 323.330 C 237.710 323.882,237.739 324.055,237.255 324.876 C 236.730 325.767,236.737 325.775,237.449 325.092 C 238.244 324.329,237.903 323.214,236.771 322.878 C 236.457 322.785,236.560 322.988,237.000 323.330 M153.026 323.723 C 153.137 324.013,153.850 324.474,154.610 324.749 C 155.370 325.024,156.220 325.477,156.500 325.757 C 156.779 326.036,157.546 326.389,158.204 326.542 C 158.958 326.716,158.514 326.359,157.000 325.574 C 155.680 324.890,154.200 324.076,153.712 323.764 C 153.016 323.320,152.868 323.311,153.026 323.723 M243.144 325.587 C 242.625 326.019,242.425 326.379,242.700 326.387 C 242.975 326.394,243.200 326.220,243.200 326.000 C 243.200 325.780,243.470 325.600,243.800 325.600 C 244.130 325.600,244.400 325.420,244.400 325.200 C 244.400 324.637,244.217 324.693,243.144 325.587 M226.257 325.508 C 225.948 326.008,227.836 326.697,228.285 326.248 C 228.422 326.112,228.158 326.000,227.700 326.000 C 227.242 326.000,226.795 325.784,226.707 325.520 C 226.585 325.155,226.477 325.152,226.257 325.508 M234.600 326.000 C 233.493 326.282,233.477 326.309,234.400 326.347 C 234.950 326.369,235.670 326.213,236.000 326.000 C 236.681 325.560,236.329 325.560,234.600 326.000 M165.800 326.400 C 165.936 326.620,166.656 326.800,167.400 326.800 C 168.144 326.800,168.864 326.620,169.000 326.400 C 169.151 326.155,168.530 326.000,167.400 326.000 C 166.270 326.000,165.649 326.155,165.800 326.400 M229.600 326.400 C 229.600 326.620,230.309 326.800,231.176 326.800 C 232.043 326.800,232.864 326.620,233.000 326.400 C 233.151 326.156,232.537 326.000,231.424 326.000 C 230.421 326.000,229.600 326.180,229.600 326.400 M159.774 327.157 C 159.924 327.401,160.577 327.600,161.224 327.600 C 161.871 327.600,162.400 327.780,162.400 328.000 C 162.400 328.220,162.580 328.400,162.800 328.400 C 163.676 328.400,163.132 327.600,162.100 327.370 C 161.495 327.236,160.662 327.033,160.250 326.920 C 159.767 326.788,159.597 326.872,159.774 327.157 M165.305 328.259 C 165.693 328.370,165.907 328.627,165.781 328.830 C 165.656 329.034,165.938 329.200,166.410 329.200 C 167.716 329.200,167.125 328.211,165.769 328.128 C 165.126 328.089,164.917 328.147,165.305 328.259 M233.067 328.267 C 232.606 328.727,232.775 329.200,233.400 329.200 C 233.730 329.200,234.000 329.033,234.000 328.829 C 234.000 328.625,234.315 328.376,234.700 328.276 C 235.159 328.156,235.044 328.077,234.367 328.046 C 233.798 328.021,233.213 328.120,233.067 328.267 " stroke="none" fill="#273ca6" fill-rule="evenodd"></path><path id="path4" d="M247.632 76.286 C 247.614 76.553,247.960 76.965,248.400 77.200 C 248.942 77.490,249.200 77.495,249.200 77.214 C 249.200 76.986,248.945 76.800,248.633 76.800 C 248.322 76.800,247.976 76.575,247.865 76.300 C 247.713 75.923,247.655 75.920,247.632 76.286 M167.800 77.600 C 167.664 77.820,167.823 78.000,168.153 78.000 C 168.483 78.000,168.864 77.820,169.000 77.600 C 169.136 77.380,168.977 77.200,168.647 77.200 C 168.317 77.200,167.936 77.380,167.800 77.600 M236.702 78.666 C 236.979 78.777,237.103 79.033,236.979 79.234 C 236.855 79.435,237.055 79.600,237.425 79.600 C 237.978 79.600,238.009 79.493,237.600 79.000 C 237.326 78.670,236.899 78.414,236.651 78.432 C 236.370 78.451,236.389 78.540,236.702 78.666 M250.800 79.203 C 250.800 79.350,251.610 80.229,252.600 81.157 C 253.590 82.085,254.400 82.741,254.400 82.615 C 254.400 82.489,253.590 81.610,252.600 80.662 C 251.610 79.713,250.800 79.057,250.800 79.203 M171.600 80.200 C 171.600 80.530,171.390 80.800,171.133 80.800 C 170.877 80.800,170.782 80.916,170.924 81.057 C 171.221 81.355,172.400 80.472,172.400 79.951 C 172.400 79.758,172.220 79.600,172.000 79.600 C 171.780 79.600,171.600 79.870,171.600 80.200 M227.600 81.151 C 227.600 81.344,227.856 81.714,228.169 81.974 C 228.635 82.361,228.698 82.298,228.522 81.623 C 228.312 80.819,227.600 80.455,227.600 81.151 M167.200 85.800 C 166.228 86.790,165.523 87.600,165.633 87.600 C 165.743 87.600,166.628 86.790,167.600 85.800 C 168.572 84.810,169.277 84.000,169.167 84.000 C 169.057 84.000,168.172 84.810,167.200 85.800 M238.400 91.600 C 239.176 92.101,239.600 92.101,239.600 91.600 C 239.600 91.380,239.195 91.203,238.700 91.206 C 237.972 91.211,237.915 91.286,238.400 91.600 M157.893 92.800 C 157.516 93.240,157.346 93.600,157.515 93.600 C 157.684 93.600,158.130 93.240,158.507 92.800 C 158.884 92.360,159.054 92.000,158.885 92.000 C 158.716 92.000,158.270 92.360,157.893 92.800 M138.800 121.600 C 138.800 136.267,138.938 144.000,139.200 144.000 C 139.462 144.000,139.600 136.267,139.600 121.600 C 139.600 106.933,139.462 99.200,139.200 99.200 C 138.938 99.200,138.800 106.933,138.800 121.600 M188.400 141.200 C 188.400 141.420,188.670 141.600,189.000 141.600 C 189.330 141.600,189.600 141.420,189.600 141.200 C 189.600 140.980,189.330 140.800,189.000 140.800 C 188.670 140.800,188.400 140.980,188.400 141.200 M270.032 150.056 C 270.014 150.416,270.354 151.136,270.787 151.656 C 271.219 152.175,271.579 152.375,271.587 152.100 C 271.594 151.825,271.435 151.600,271.233 151.600 C 271.032 151.600,270.686 151.105,270.465 150.500 C 270.244 149.895,270.049 149.695,270.032 150.056 M138.000 156.200 C 137.079 157.180,137.377 157.663,138.320 156.720 C 138.693 156.347,138.800 156.564,138.800 157.696 C 138.800 158.497,138.980 159.264,139.200 159.400 C 139.448 159.553,139.600 158.804,139.600 157.424 C 139.600 154.937,139.359 154.753,138.000 156.200 M261.800 156.800 C 261.936 157.020,262.307 157.200,262.624 157.200 C 262.941 157.200,263.200 157.380,263.200 157.600 C 263.200 157.820,263.425 157.994,263.700 157.987 C 263.975 157.979,263.775 157.619,263.256 157.187 C 262.259 156.357,261.382 156.124,261.800 156.800 M138.800 230.400 C 138.800 277.067,138.935 300.800,139.200 300.800 C 139.465 300.800,139.600 277.067,139.600 230.400 C 139.600 183.733,139.465 160.000,139.200 160.000 C 138.935 160.000,138.800 183.733,138.800 230.400 M186.000 178.000 C 185.205 178.514,186.204 178.514,187.400 178.000 L 188.200 177.656 187.400 177.634 C 186.960 177.622,186.330 177.787,186.000 178.000 M232.400 249.600 C 232.400 249.820,232.670 250.000,233.000 250.000 C 233.330 250.000,233.600 249.820,233.600 249.600 C 233.600 249.380,233.330 249.200,233.000 249.200 C 232.670 249.200,232.400 249.380,232.400 249.600 M218.976 252.187 C 218.274 252.719,218.267 252.776,218.900 252.787 C 219.285 252.794,219.600 252.633,219.600 252.429 C 219.600 252.225,219.915 251.976,220.300 251.876 C 220.844 251.734,220.861 251.682,220.376 251.646 C 220.034 251.621,219.404 251.864,218.976 252.187 M212.800 252.800 C 212.800 253.020,213.059 253.200,213.376 253.200 C 213.693 253.200,214.064 253.020,214.200 252.800 C 214.336 252.580,214.077 252.400,213.624 252.400 C 213.171 252.400,212.800 252.580,212.800 252.800 M155.443 281.367 C 155.576 281.715,155.861 282.000,156.076 282.000 C 156.602 282.000,156.273 281.091,155.675 280.892 C 155.382 280.794,155.293 280.977,155.443 281.367 M217.200 288.800 C 217.200 289.020,216.810 289.200,216.333 289.200 C 215.857 289.200,215.578 289.312,215.715 289.448 C 216.075 289.808,218.000 289.256,218.000 288.792 C 218.000 288.577,217.820 288.400,217.600 288.400 C 217.380 288.400,217.200 288.580,217.200 288.800 M188.000 289.600 C 188.000 289.820,188.349 290.000,188.776 290.000 C 189.203 290.000,189.664 289.820,189.800 289.600 C 189.940 289.373,189.604 289.200,189.024 289.200 C 188.461 289.200,188.000 289.380,188.000 289.600 M256.814 312.774 C 256.307 313.721,256.284 314.119,256.752 313.830 C 257.105 313.612,257.655 312.000,257.377 312.000 C 257.295 312.000,257.042 312.348,256.814 312.774 M251.570 319.900 L 250.600 321.000 251.800 320.000 C 252.460 319.450,253.075 318.955,253.167 318.900 C 253.258 318.845,253.155 318.800,252.936 318.800 C 252.718 318.800,252.103 319.295,251.570 319.900 M248.177 322.967 C 247.750 323.279,247.536 323.669,247.701 323.834 C 247.865 323.999,248.000 323.923,248.000 323.667 C 248.000 323.410,248.270 323.200,248.600 323.200 C 248.930 323.200,249.200 323.020,249.200 322.800 C 249.200 322.276,249.100 322.293,248.177 322.967 " stroke="none" fill="#4454c4" fill-rule="evenodd"></path></g></svg>